<?xml version="1.0" encoding="UTF-8" standalone="no"?>
<!-- Created with Inkscape (http://www.inkscape.org/) -->

<svg
   xmlns:dc="http://purl.org/dc/elements/1.1/"
   xmlns:cc="http://creativecommons.org/ns#"
   xmlns:rdf="http://www.w3.org/1999/02/22-rdf-syntax-ns#"
   xmlns:svg="http://www.w3.org/2000/svg"
   xmlns="http://www.w3.org/2000/svg"
   xmlns:sodipodi="http://sodipodi.sourceforge.net/DTD/sodipodi-0.dtd"
   xmlns:inkscape="http://www.inkscape.org/namespaces/inkscape"
   width="210mm"
   height="245mm"
   viewBox="0 0 210 245"
   version="1.1"
   id="svg1960"
   inkscape:version="0.92.4 (5da689c313, 2019-01-14)"
   sodipodi:docname="PullToOpen.svg">
  <defs
     id="defs1954" />
  <sodipodi:namedview
     id="base"
     pagecolor="#ffffff"
     bordercolor="#666666"
     borderopacity="1.0"
     inkscape:pageopacity="0.0"
     inkscape:pageshadow="2"
     inkscape:zoom="0.7198092"
     inkscape:cx="396.85039"
     inkscape:cy="407.49604"
     inkscape:document-units="mm"
     inkscape:current-layer="layer1"
     showgrid="false"
     inkscape:window-width="1542"
     inkscape:window-height="981"
     inkscape:window-x="289"
     inkscape:window-y="78"
     inkscape:window-maximized="0" />
  <metadata
     id="metadata1957">
    <rdf:RDF>
      <cc:Work
         rdf:about="">
        <dc:format>image/svg+xml</dc:format>
        <dc:type
           rdf:resource="http://purl.org/dc/dcmitype/StillImage" />
        <dc:title />
      </cc:Work>
    </rdf:RDF>
  </metadata>
  <g
     inkscape:label="Layer 1"
     inkscape:groupmode="layer"
     id="layer1"
     transform="translate(0,-52)">
    <g
       id="g1166">
      <rect
         y="53.5"
         x="6"
         height="242"
         width="198"
         id="rect934"
         style="fill:#ffffff;fill-opacity:1;stroke:none;stroke-width:1.44756746;stroke-miterlimit:4;stroke-dasharray:none;stroke-opacity:1" />
      <g
         transform="matrix(2.5318515,0,0,2.5318515,-655.83116,-1324.8736)"
         id="g4534">
        <g
           style="font-style:normal;font-weight:normal;font-size:40px;line-height:125%;font-family:Sans;letter-spacing:0px;word-spacing:0px;fill:#000000;fill-opacity:1;stroke:none"
           id="flowRoot5075">
          <path
             inkscape:connector-curvature="0"
             d="m 264.03125,548.73322 v 1.54297 c 0,0.33333 0.0365,0.54036 0.10937,0.62109 0.099,0.11458 0.2487,0.17187 0.44922,0.17187 h 0.20313 v 0.14454 h -2.26953 v -0.14454 h 0.19922 c 0.22395,0 0.38411,-0.0729 0.48046,-0.21875 0.0521,-0.0807 0.0781,-0.27213 0.0781,-0.57421 v -3.42188 c 0,-0.33333 -0.0352,-0.54036 -0.10547,-0.62109 -0.10156,-0.11458 -0.2526,-0.17187 -0.45312,-0.17188 h -0.19922 v -0.14453 h 1.9414 c 0.47396,10e-6 0.84766,0.0488 1.1211,0.14649 0.27343,0.0977 0.5039,0.26237 0.6914,0.49414 0.1875,0.23177 0.28125,0.50651 0.28125,0.82421 0,0.4323 -0.14258,0.78386 -0.42773,1.05469 -0.28516,0.27084 -0.68815,0.40625 -1.20899,0.40625 -0.1276,0 -0.26562,-0.009 -0.41406,-0.0273 -0.14844,-0.0182 -0.30729,-0.0456 -0.47656,-0.082 z m 0,-0.22266 c 0.13802,0.026 0.26041,0.0456 0.36719,0.0586 0.10677,0.013 0.19791,0.0195 0.27343,0.0195 0.27084,0 0.50456,-0.10482 0.70118,-0.31446 0.19661,-0.20963 0.29492,-0.48111 0.29492,-0.81445 0,-0.22916 -0.0469,-0.44205 -0.14063,-0.63867 -0.0937,-0.19661 -0.22656,-0.34375 -0.39843,-0.44141 -0.17188,-0.0976 -0.36719,-0.14648 -0.58594,-0.14648 -0.13282,0 -0.30339,0.0247 -0.51172,0.0742 z"
             style="font-size:8px;font-family:'Times New Roman';-inkscape-font-specification:'Times New Roman';text-align:center;text-anchor:middle"
             id="path3139" />
          <path
             inkscape:connector-curvature="0"
             d="m 269.76953,545.79572 c 0.6875,0 1.2832,0.26107 1.78711,0.7832 0.5039,0.52214 0.75585,1.17383 0.75586,1.95508 -10e-6,0.80469 -0.25391,1.47266 -0.76172,2.0039 -0.50782,0.53125 -1.1224,0.79688 -1.84375,0.79688 -0.72917,0 -1.3418,-0.25911 -1.83789,-0.77734 -0.49609,-0.51823 -0.74414,-1.1888 -0.74414,-2.01172 0,-0.84115 0.28646,-1.52734 0.85937,-2.0586 0.4974,-0.46093 1.09245,-0.6914 1.78516,-0.6914 z m -0.0742,0.28515 c -0.47396,10e-6 -0.85417,0.17579 -1.14062,0.52735 -0.35677,0.4375 -0.53516,1.07813 -0.53516,1.92187 0,0.86459 0.1849,1.52995 0.55469,1.9961 0.28385,0.35416 0.65885,0.53125 1.125,0.53125 0.49739,0 0.9082,-0.19401 1.23242,-0.58204 0.32421,-0.38801 0.48632,-0.99999 0.48633,-1.83593 -10e-6,-0.90625 -0.17839,-1.58203 -0.53516,-2.02735 -0.28646,-0.35416 -0.68229,-0.53124 -1.1875,-0.53125 z"
             style="line-height:215.00000954%"
             id="path3141" />
          <path
             inkscape:connector-curvature="0"
             d="m 277.21094,549.74884 0.1289,0.0274 -0.45312,1.4375 h -4.10156 v -0.14454 h 0.19921 c 0.22396,0 0.38412,-0.0729 0.48047,-0.21875 0.0547,-0.0833 0.082,-0.27604 0.082,-0.57812 v -3.41797 c 0,-0.33072 -0.0365,-0.53775 -0.10937,-0.62109 -0.10156,-0.11458 -0.2526,-0.17187 -0.45313,-0.17188 h -0.19921 v -0.14453 h 2.39843 v 0.14453 c -0.28125,-0.003 -0.47851,0.0234 -0.59179,0.0781 -0.11329,0.0547 -0.19076,0.1237 -0.23243,0.20703 -0.0417,0.0833 -0.0625,0.28256 -0.0625,0.59765 v 3.32813 c 0,0.21615 0.0208,0.36458 0.0625,0.44531 0.0312,0.0547 0.0794,0.0951 0.14454,0.1211 0.0651,0.026 0.26822,0.0391 0.60937,0.0391 h 0.38672 c 0.40625,0 0.6914,-0.0299 0.85547,-0.0898 0.16406,-0.0599 0.3138,-0.16601 0.44922,-0.31835 0.13541,-0.15235 0.27083,-0.39258 0.40625,-0.72071 z"
             style="line-height:215.00000954%"
             id="path3143" />
          <path
             inkscape:connector-curvature="0"
             d="m 279.98437,551.06915 v 0.14454 h -2.26953 v -0.14454 h 0.1875 c 0.21875,0 0.37761,-0.0638 0.47657,-0.1914 0.0625,-0.0833 0.0937,-0.28386 0.0937,-0.60156 v -3.42188 c 0,-0.26822 -0.0169,-0.44531 -0.0508,-0.53125 -0.026,-0.0651 -0.0794,-0.12109 -0.16015,-0.16797 -0.11459,-0.0625 -0.23438,-0.0937 -0.35938,-0.0937 h -0.1875 v -0.14453 h 2.26953 v 0.14453 h -0.1914 c -0.21615,1e-5 -0.3737,0.0638 -0.47266,0.19141 -0.0651,0.0833 -0.0977,0.28386 -0.0976,0.60156 v 3.42188 c -10e-6,0.26823 0.0169,0.44531 0.0508,0.53125 0.026,0.0651 0.0807,0.12109 0.16406,0.16796 0.11198,0.0625 0.23047,0.0937 0.35547,0.0937 z"
             style="line-height:215.00000954%"
             id="path3145" />
          <path
             inkscape:connector-curvature="0"
             d="m 285.00391,545.79572 0.12109,1.80078 h -0.12109 c -0.16147,-0.53906 -0.39194,-0.92708 -0.69141,-1.16406 -0.29948,-0.23698 -0.65886,-0.35547 -1.07813,-0.35547 -0.35156,0 -0.66927,0.0892 -0.95312,0.26758 -0.28386,0.17839 -0.50716,0.46289 -0.66992,0.85351 -0.16276,0.39063 -0.24414,0.87631 -0.24414,1.45703 0,0.47917 0.0768,0.89454 0.23047,1.2461 0.15364,0.35156 0.38476,0.62109 0.69336,0.80859 0.30859,0.1875 0.6608,0.28125 1.05664,0.28125 0.34374,0 0.64713,-0.0736 0.91015,-0.2207 0.26302,-0.14714 0.55208,-0.43946 0.86719,-0.87696 l 0.12109,0.0781 c -0.26563,0.47135 -0.57552,0.81641 -0.92968,1.03515 -0.35417,0.21875 -0.77475,0.32813 -1.26172,0.32813 -0.87761,0 -1.5573,-0.32552 -2.03907,-0.97656 -0.35937,-0.48438 -0.53906,-1.05469 -0.53906,-1.71094 0,-0.52864 0.11849,-1.01432 0.35547,-1.45703 0.23698,-0.44271 0.56315,-0.7858 0.97852,-1.0293 0.41536,-0.24348 0.86914,-0.36523 1.36132,-0.36523 0.38281,0 0.76042,0.0937 1.13282,0.28125 0.10937,0.0573 0.18749,0.0859 0.23437,0.0859 0.0703,1e-5 0.13151,-0.0247 0.1836,-0.0742 0.0677,-0.0703 0.11588,-0.16797 0.14453,-0.29297 z"
             style="line-height:215.00000954%"
             id="path3147" />
          <path
             inkscape:connector-curvature="0"
             d="m 287.20312,546.20587 v 2.09375 h 1.16407 c 0.30208,10e-6 0.5039,-0.0456 0.60547,-0.13672 0.13541,-0.11978 0.21093,-0.33072 0.22656,-0.63281 h 0.14453 v 1.84375 h -0.14453 c -0.0365,-0.25781 -0.0729,-0.42317 -0.10938,-0.49609 -0.0469,-0.0911 -0.1237,-0.16276 -0.23047,-0.21485 -0.10677,-0.0521 -0.27083,-0.0781 -0.49218,-0.0781 h -1.16407 v 1.74609 c 0,0.23438 0.0104,0.37696 0.0312,0.42774 0.0208,0.0508 0.0573,0.0911 0.10938,0.12109 0.0521,0.03 0.15104,0.0449 0.29687,0.0449 h 0.89844 c 0.29948,0 0.51693,-0.0208 0.65235,-0.0625 0.13541,-0.0417 0.26562,-0.12369 0.39062,-0.24609 0.16146,-0.16146 0.32682,-0.40495 0.49609,-0.73047 h 0.15625 l -0.45703,1.32813 h -4.08203 v -0.14454 h 0.1875 c 0.125,0 0.24349,-0.0299 0.35547,-0.0898 0.0833,-0.0417 0.13997,-0.10417 0.16992,-0.1875 0.0299,-0.0833 0.0449,-0.2539 0.0449,-0.51172 v -3.4414 c 0,-0.33594 -0.0339,-0.54297 -0.10156,-0.6211 -0.0937,-0.10416 -0.25,-0.15624 -0.46875,-0.15625 h -0.1875 v -0.14453 h 4.08203 l 0.0586,1.16016 h -0.15235 c -0.0547,-0.27864 -0.11523,-0.47005 -0.18164,-0.57422 -0.0664,-0.10416 -0.16471,-0.18359 -0.29492,-0.23828 -0.10417,-0.0391 -0.28776,-0.0586 -0.55078,-0.0586 z"
             style="line-height:215.00000954%"
             id="path3149" />
          <path
             inkscape:connector-curvature="0"
             d="m 297.05078,545.91681 0.0586,1.24219 h -0.14843 c -0.0286,-0.21875 -0.0677,-0.375 -0.11719,-0.46875 -0.0807,-0.15104 -0.18816,-0.26237 -0.32227,-0.33399 -0.13411,-0.0716 -0.31055,-0.10741 -0.52929,-0.10742 h -0.7461 v 4.04688 c 0,0.32552 0.0352,0.52864 0.10547,0.60937 0.099,0.10938 0.2513,0.16406 0.45703,0.16406 h 0.1836 v 0.14454 h -2.2461 v -0.14454 h 0.1875 c 0.22396,0 0.38281,-0.0677 0.47657,-0.20312 0.0573,-0.0833 0.0859,-0.27344 0.0859,-0.57031 v -4.04688 h -0.63672 c -0.24739,10e-6 -0.42317,0.0182 -0.52734,0.0547 -0.13542,0.0495 -0.2513,0.14454 -0.34766,0.28516 -0.0964,0.14063 -0.15364,0.33073 -0.17187,0.57031 h -0.14844 l 0.0625,-1.24219 z"
             style="line-height:215.00000954%"
             id="path3151" />
          <path
             inkscape:connector-curvature="0"
             d="m 298.98437,546.20587 v 2.09375 h 1.16407 c 0.30208,10e-6 0.5039,-0.0456 0.60547,-0.13672 0.13541,-0.11978 0.21093,-0.33072 0.22656,-0.63281 h 0.14453 v 1.84375 h -0.14453 c -0.0365,-0.25781 -0.0729,-0.42317 -0.10938,-0.49609 -0.0469,-0.0911 -0.1237,-0.16276 -0.23047,-0.21485 -0.10677,-0.0521 -0.27083,-0.0781 -0.49218,-0.0781 h -1.16407 v 1.74609 c 0,0.23438 0.0104,0.37696 0.0312,0.42774 0.0208,0.0508 0.0573,0.0911 0.10938,0.12109 0.0521,0.03 0.15104,0.0449 0.29687,0.0449 h 0.89844 c 0.29948,0 0.51693,-0.0208 0.65235,-0.0625 0.13541,-0.0417 0.26562,-0.12369 0.39062,-0.24609 0.16146,-0.16146 0.32682,-0.40495 0.49609,-0.73047 h 0.15625 l -0.45703,1.32813 h -4.08203 v -0.14454 h 0.1875 c 0.125,0 0.24349,-0.0299 0.35547,-0.0898 0.0833,-0.0417 0.13997,-0.10417 0.16992,-0.1875 0.0299,-0.0833 0.0449,-0.2539 0.0449,-0.51172 v -3.4414 c 0,-0.33594 -0.0339,-0.54297 -0.10156,-0.6211 -0.0937,-0.10416 -0.25,-0.15624 -0.46875,-0.15625 h -0.1875 v -0.14453 h 4.08203 l 0.0586,1.16016 h -0.15235 c -0.0547,-0.27864 -0.11523,-0.47005 -0.18164,-0.57422 -0.0664,-0.10416 -0.16471,-0.18359 -0.29492,-0.23828 -0.10417,-0.0391 -0.28776,-0.0586 -0.55078,-0.0586 z"
             style="line-height:215.00000954%"
             id="path3153" />
          <path
             inkscape:connector-curvature="0"
             d="m 306.78906,549.74884 0.12891,0.0274 -0.45313,1.4375 h -4.10156 v -0.14454 h 0.19922 c 0.22396,0 0.38411,-0.0729 0.48047,-0.21875 0.0547,-0.0833 0.082,-0.27604 0.082,-0.57812 v -3.41797 c 0,-0.33072 -0.0365,-0.53775 -0.10938,-0.62109 -0.10156,-0.11458 -0.2526,-0.17187 -0.45312,-0.17188 h -0.19922 v -0.14453 h 2.39844 v 0.14453 c -0.28125,-0.003 -0.47852,0.0234 -0.5918,0.0781 -0.11328,0.0547 -0.19076,0.1237 -0.23242,0.20703 -0.0417,0.0833 -0.0625,0.28256 -0.0625,0.59765 v 3.32813 c 0,0.21615 0.0208,0.36458 0.0625,0.44531 0.0312,0.0547 0.0794,0.0951 0.14453,0.1211 0.0651,0.026 0.26823,0.0391 0.60938,0.0391 h 0.38671 c 0.40625,0 0.69141,-0.0299 0.85547,-0.0898 0.16406,-0.0599 0.3138,-0.16601 0.44922,-0.31835 0.13541,-0.15235 0.27083,-0.39258 0.40625,-0.72071 z"
             style="line-height:215.00000954%"
             id="path3155" />
          <path
             inkscape:connector-curvature="0"
             d="m 308.76562,546.20587 v 2.09375 h 1.16407 c 0.30208,10e-6 0.5039,-0.0456 0.60547,-0.13672 0.13541,-0.11978 0.21093,-0.33072 0.22656,-0.63281 h 0.14453 v 1.84375 h -0.14453 c -0.0365,-0.25781 -0.0729,-0.42317 -0.10938,-0.49609 -0.0469,-0.0911 -0.1237,-0.16276 -0.23047,-0.21485 -0.10677,-0.0521 -0.27083,-0.0781 -0.49218,-0.0781 h -1.16407 v 1.74609 c 0,0.23438 0.0104,0.37696 0.0312,0.42774 0.0208,0.0508 0.0573,0.0911 0.10938,0.12109 0.0521,0.03 0.15104,0.0449 0.29687,0.0449 h 0.89844 c 0.29948,0 0.51693,-0.0208 0.65235,-0.0625 0.13541,-0.0417 0.26562,-0.12369 0.39062,-0.24609 0.16146,-0.16146 0.32682,-0.40495 0.49609,-0.73047 h 0.15625 l -0.45703,1.32813 h -4.08203 v -0.14454 h 0.1875 c 0.125,0 0.24349,-0.0299 0.35547,-0.0898 0.0833,-0.0417 0.13997,-0.10417 0.16992,-0.1875 0.0299,-0.0833 0.0449,-0.2539 0.0449,-0.51172 v -3.4414 c 0,-0.33594 -0.0339,-0.54297 -0.10156,-0.6211 -0.0937,-0.10416 -0.25,-0.15624 -0.46875,-0.15625 h -0.1875 v -0.14453 h 4.08203 l 0.0586,1.16016 h -0.15235 c -0.0547,-0.27864 -0.11523,-0.47005 -0.18164,-0.57422 -0.0664,-0.10416 -0.16471,-0.18359 -0.29492,-0.23828 -0.10417,-0.0391 -0.28776,-0.0586 -0.55078,-0.0586 z"
             style="line-height:215.00000954%"
             id="path3157" />
          <path
             inkscape:connector-curvature="0"
             d="m 313.625,548.73322 v 1.54297 c 0,0.33333 0.0365,0.54036 0.10937,0.62109 0.099,0.11458 0.2487,0.17187 0.44922,0.17187 h 0.20313 v 0.14454 h -2.26953 v -0.14454 h 0.19922 c 0.22395,0 0.38411,-0.0729 0.48046,-0.21875 0.0521,-0.0807 0.0781,-0.27213 0.0781,-0.57421 v -3.42188 c 0,-0.33333 -0.0352,-0.54036 -0.10547,-0.62109 -0.10156,-0.11458 -0.2526,-0.17187 -0.45312,-0.17188 h -0.19922 v -0.14453 h 1.9414 c 0.47396,10e-6 0.84766,0.0488 1.1211,0.14649 0.27343,0.0977 0.5039,0.26237 0.6914,0.49414 0.1875,0.23177 0.28125,0.50651 0.28125,0.82421 0,0.4323 -0.14258,0.78386 -0.42773,1.05469 -0.28516,0.27084 -0.68815,0.40625 -1.20899,0.40625 -0.1276,0 -0.26562,-0.009 -0.41406,-0.0273 -0.14844,-0.0182 -0.30729,-0.0456 -0.47656,-0.082 z m 0,-0.22266 c 0.13802,0.026 0.26041,0.0456 0.36719,0.0586 0.10677,0.013 0.19791,0.0195 0.27343,0.0195 0.27084,0 0.50456,-0.10482 0.70118,-0.31446 0.19661,-0.20963 0.29492,-0.48111 0.29492,-0.81445 0,-0.22916 -0.0469,-0.44205 -0.14063,-0.63867 -0.0937,-0.19661 -0.22656,-0.34375 -0.39843,-0.44141 -0.17188,-0.0976 -0.36719,-0.14648 -0.58594,-0.14648 -0.13282,0 -0.30339,0.0247 -0.51172,0.0742 z"
             style="line-height:215.00000954%"
             id="path3159" />
          <path
             inkscape:connector-curvature="0"
             d="m 318.08203,548.37384 h 2.46094 v -1.51562 c -1e-5,-0.27083 -0.0169,-0.44922 -0.0508,-0.53516 -0.026,-0.0651 -0.0807,-0.12109 -0.16407,-0.16797 -0.11198,-0.0625 -0.23047,-0.0937 -0.35546,-0.0937 h -0.1875 v -0.14453 h 2.26562 v 0.14453 h -0.1875 c -0.125,1e-5 -0.24349,0.03 -0.35547,0.0899 -0.0833,0.0417 -0.13998,0.10482 -0.16992,0.18945 -0.03,0.0846 -0.0449,0.25717 -0.0449,0.51758 v 3.41797 c -1e-5,0.26823 0.0169,0.44531 0.0508,0.53125 0.026,0.0651 0.0794,0.12109 0.16016,0.16796 0.11457,0.0625 0.23437,0.0937 0.35937,0.0937 h 0.1875 v 0.14454 h -2.26562 v -0.14454 h 0.1875 c 0.21614,0 0.37369,-0.0638 0.47265,-0.1914 0.0651,-0.0833 0.0976,-0.28386 0.0977,-0.60156 v -1.61329 h -2.46094 v 1.61329 c 0,0.26823 0.0169,0.44531 0.0508,0.53125 0.026,0.0651 0.0807,0.12109 0.16406,0.16796 0.11198,0.0625 0.23047,0.0937 0.35547,0.0937 h 0.19141 v 0.14454 h -2.26953 v -0.14454 h 0.1875 c 0.21875,0 0.3776,-0.0638 0.47656,-0.1914 0.0625,-0.0833 0.0937,-0.28386 0.0937,-0.60156 v -3.41797 c 0,-0.27083 -0.0169,-0.44922 -0.0508,-0.53516 -0.026,-0.0651 -0.0794,-0.12109 -0.16016,-0.16797 -0.11458,-0.0625 -0.23437,-0.0937 -0.35937,-0.0937 h -0.1875 v -0.14453 h 2.26953 v 0.14453 h -0.19141 c -0.125,1e-5 -0.24349,0.03 -0.35547,0.0899 -0.0807,0.0417 -0.13672,0.10482 -0.16796,0.18945 -0.0313,0.0846 -0.0469,0.25717 -0.0469,0.51758 z"
             style="line-height:215.00000954%"
             id="path3161" />
          <path
             inkscape:connector-curvature="0"
             d="m 325.14453,545.79572 c 0.6875,0 1.2832,0.26107 1.78711,0.7832 0.5039,0.52214 0.75585,1.17383 0.75586,1.95508 -10e-6,0.80469 -0.25391,1.47266 -0.76172,2.0039 -0.50782,0.53125 -1.1224,0.79688 -1.84375,0.79688 -0.72917,0 -1.3418,-0.25911 -1.83789,-0.77734 -0.49609,-0.51823 -0.74414,-1.1888 -0.74414,-2.01172 0,-0.84115 0.28646,-1.52734 0.85937,-2.0586 0.4974,-0.46093 1.09245,-0.6914 1.78516,-0.6914 z m -0.0742,0.28515 c -0.47396,10e-6 -0.85417,0.17579 -1.14062,0.52735 -0.35677,0.4375 -0.53516,1.07813 -0.53516,1.92187 0,0.86459 0.1849,1.52995 0.55469,1.9961 0.28385,0.35416 0.65885,0.53125 1.125,0.53125 0.49739,0 0.9082,-0.19401 1.23242,-0.58204 0.32421,-0.38801 0.48632,-0.99999 0.48633,-1.83593 -10e-6,-0.90625 -0.17839,-1.58203 -0.53516,-2.02735 -0.28646,-0.35416 -0.68229,-0.53124 -1.1875,-0.53125 z"
             style="line-height:215.00000954%"
             id="path3163" />
          <path
             inkscape:connector-curvature="0"
             d="m 327.89453,545.91681 h 1.4375 l 3.23828,3.97266 v -3.05469 c 0,-0.32552 -0.0365,-0.52864 -0.10937,-0.60938 -0.0964,-0.10937 -0.2487,-0.16405 -0.45703,-0.16406 h -0.1836 v -0.14453 h 1.84375 v 0.14453 h -0.1875 c -0.22396,10e-6 -0.38282,0.0677 -0.47656,0.20313 -0.0573,0.0833 -0.0859,0.27344 -0.0859,0.57031 v 4.46484 h -0.14062 l -3.49219,-4.26562 v 3.26172 c 0,0.32552 0.0351,0.52864 0.10547,0.60937 0.099,0.10938 0.2513,0.16406 0.45703,0.16406 h 0.1875 v 0.14454 h -1.84375 v -0.14454 h 0.18359 c 0.22657,0 0.38672,-0.0677 0.48047,-0.20312 0.0573,-0.0833 0.0859,-0.27344 0.0859,-0.57031 v -3.6836 c -0.15365,-0.17968 -0.27018,-0.29817 -0.34961,-0.35547 -0.0794,-0.0573 -0.19596,-0.11067 -0.34961,-0.16015 -0.0755,-0.0234 -0.1901,-0.0352 -0.34375,-0.0352 z"
             style="line-height:215.00000954%"
             id="path3165" />
          <path
             inkscape:connector-curvature="0"
             d="m 335.45312,546.20587 v 2.09375 h 1.16407 c 0.30208,10e-6 0.5039,-0.0456 0.60547,-0.13672 0.13541,-0.11978 0.21093,-0.33072 0.22656,-0.63281 h 0.14453 v 1.84375 h -0.14453 c -0.0365,-0.25781 -0.0729,-0.42317 -0.10938,-0.49609 -0.0469,-0.0911 -0.1237,-0.16276 -0.23047,-0.21485 -0.10677,-0.0521 -0.27083,-0.0781 -0.49218,-0.0781 h -1.16407 v 1.74609 c 0,0.23438 0.0104,0.37696 0.0312,0.42774 0.0208,0.0508 0.0573,0.0911 0.10938,0.12109 0.0521,0.03 0.15104,0.0449 0.29687,0.0449 h 0.89844 c 0.29948,0 0.51693,-0.0208 0.65235,-0.0625 0.13541,-0.0417 0.26562,-0.12369 0.39062,-0.24609 0.16146,-0.16146 0.32682,-0.40495 0.49609,-0.73047 h 0.15625 l -0.45703,1.32813 h -4.08203 v -0.14454 h 0.1875 c 0.125,0 0.24349,-0.0299 0.35547,-0.0898 0.0833,-0.0417 0.13997,-0.10417 0.16992,-0.1875 0.0299,-0.0833 0.0449,-0.2539 0.0449,-0.51172 v -3.4414 c 0,-0.33594 -0.0339,-0.54297 -0.10156,-0.6211 -0.0937,-0.10416 -0.25,-0.15624 -0.46875,-0.15625 h -0.1875 v -0.14453 h 4.08203 l 0.0586,1.16016 h -0.15235 c -0.0547,-0.27864 -0.11523,-0.47005 -0.18164,-0.57422 -0.0664,-0.10416 -0.16471,-0.18359 -0.29492,-0.23828 -0.10417,-0.0391 -0.28776,-0.0586 -0.55078,-0.0586 z"
             style="font-size:8px;font-family:'Times New Roman';-inkscape-font-specification:'Times New Roman';text-align:center;text-anchor:middle"
             id="path3167" />
          <path
             inkscape:connector-curvature="0"
             d="m 288.30273,556.56091 v 3.12305 H 289.75 c 0.33203,0 0.57519,-0.0732 0.72949,-0.21973 0.15429,-0.14648 0.25683,-0.43652 0.30762,-0.87012 h 0.2168 v 2.68946 h -0.2168 c -0.004,-0.30859 -0.0439,-0.53516 -0.12012,-0.67969 -0.0762,-0.14453 -0.18164,-0.25293 -0.3164,-0.3252 -0.13477,-0.0723 -0.33497,-0.10839 -0.60059,-0.10839 h -1.44727 v 2.49609 c 0,0.40234 0.0254,0.66797 0.0762,0.79687 0.0391,0.0977 0.12109,0.18165 0.24609,0.25196 0.17187,0.0937 0.35156,0.14062 0.53906,0.14062 h 0.28711 v 0.2168 h -3.41015 v -0.2168 h 0.28125 c 0.32812,0 0.5664,-0.0957 0.71484,-0.28711 0.0937,-0.125 0.14062,-0.42578 0.14062,-0.90234 v -5.13281 c 0,-0.40234 -0.0254,-0.66796 -0.0762,-0.79688 -0.0391,-0.0976 -0.11914,-0.18163 -0.24023,-0.25195 -0.16797,-0.0937 -0.34766,-0.14062 -0.53906,-0.14063 h -0.28125 v -0.21679 h 5.9121 l 0.0762,1.74609 h -0.20508 c -0.10157,-0.37109 -0.21973,-0.64355 -0.35449,-0.81738 -0.13477,-0.17382 -0.30079,-0.2998 -0.49805,-0.37793 -0.19727,-0.0781 -0.50293,-0.11718 -0.91699,-0.11719 z"
             style="font-size:12px;font-family:'Times New Roman';-inkscape-font-specification:'Times New Roman';text-align:center;text-anchor:middle"
             id="path3169" />
          <path
             inkscape:connector-curvature="0"
             d="m 300.63672,564.07263 h -2.1211 l -2.68945,-3.71484 c -0.19922,0.008 -0.36133,0.0117 -0.48633,0.0117 -0.0508,10e-6 -0.10547,-9.7e-4 -0.16406,-0.003 -0.0586,-0.002 -0.11914,-0.005 -0.18164,-0.009 v 2.30859 c 0,0.5 0.0547,0.81055 0.16406,0.93164 0.14844,0.17188 0.37109,0.25781 0.66797,0.25781 h 0.31055 v 0.2168 h -3.4043 v -0.2168 h 0.29883 c 0.33594,0 0.57617,-0.10937 0.7207,-0.32812 0.082,-0.1211 0.12305,-0.4082 0.12305,-0.86133 v -5.13281 c 0,-0.5 -0.0547,-0.81054 -0.16406,-0.93164 -0.15235,-0.17187 -0.37891,-0.25781 -0.67969,-0.25782 h -0.29883 v -0.21679 h 2.89453 c 0.84375,10e-6 1.46582,0.0615 1.86621,0.18457 0.40039,0.12305 0.74023,0.34961 1.01954,0.67968 0.27929,0.33009 0.41893,0.72364 0.41894,1.18067 -1e-5,0.48829 -0.15919,0.91211 -0.47754,1.27148 -0.31836,0.35938 -0.81153,0.61329 -1.47949,0.76172 l 1.64062,2.2793 c 0.375,0.52344 0.69726,0.87109 0.9668,1.04297 0.26953,0.17187 0.62109,0.28125 1.05469,0.32812 z m -5.64258,-4.08398 c 0.0742,0 0.13867,9.8e-4 0.19336,0.003 0.0547,0.002 0.0996,0.003 0.13477,0.003 0.7578,10e-6 1.32909,-0.16405 1.71386,-0.49218 0.38476,-0.32812 0.57715,-0.74609 0.57715,-1.25391 0,-0.49609 -0.15528,-0.89941 -0.46582,-1.20996 -0.31055,-0.31054 -0.72168,-0.46581 -1.2334,-0.46582 -0.22656,1e-5 -0.5332,0.0371 -0.91992,0.11133 z"
             style="font-size:12px;font-family:'Times New Roman';-inkscape-font-specification:'Times New Roman';text-align:center;text-anchor:middle"
             id="path3171" />
          <path
             inkscape:connector-curvature="0"
             d="m 303.05078,556.56091 v 3.14063 h 1.74609 c 0.45313,0 0.75586,-0.0684 0.90821,-0.20508 0.20312,-0.17969 0.3164,-0.49609 0.33984,-0.94922 h 0.2168 v 2.76562 h -0.2168 c -0.0547,-0.38671 -0.10938,-0.63476 -0.16406,-0.74414 -0.0703,-0.13671 -0.18555,-0.24413 -0.3457,-0.32226 -0.16016,-0.0781 -0.40626,-0.11719 -0.73829,-0.11719 h -1.74609 v 2.61914 c 0,0.35156 0.0156,0.56543 0.0469,0.6416 0.0312,0.0762 0.0859,0.13672 0.16406,0.18164 0.0781,0.0449 0.22656,0.0674 0.44531,0.0674 h 1.34766 c 0.44921,0 0.77538,-0.0312 0.97851,-0.0937 0.20312,-0.0625 0.39843,-0.18555 0.58594,-0.36914 0.24218,-0.24219 0.49023,-0.60743 0.74414,-1.09571 h 0.23438 l -0.68555,1.99219 h -6.12305 v -0.2168 h 0.28125 c 0.1875,0 0.36524,-0.0449 0.53321,-0.13476 0.12499,-0.0625 0.20996,-0.15625 0.25488,-0.28125 0.0449,-0.125 0.0674,-0.38086 0.0674,-0.76758 v -5.16211 c 0,-0.5039 -0.0508,-0.81445 -0.15234,-0.93164 -0.14063,-0.15624 -0.375,-0.23437 -0.70313,-0.23438 h -0.28125 v -0.21679 h 6.12305 l 0.0879,1.74023 h -0.22852 c -0.082,-0.41796 -0.17285,-0.70507 -0.27246,-0.86133 -0.0996,-0.15624 -0.24707,-0.27538 -0.44238,-0.35742 -0.15625,-0.0586 -0.43165,-0.0879 -0.82617,-0.0879 z"
             style="font-size:12px;font-family:'Times New Roman';-inkscape-font-specification:'Times New Roman';text-align:center;text-anchor:middle"
             id="path3173" />
          <path
             inkscape:connector-curvature="0"
             d="m 310.38672,556.56091 v 3.14063 h 1.74609 c 0.45312,0 0.75586,-0.0684 0.90821,-0.20508 0.20312,-0.17969 0.3164,-0.49609 0.33984,-0.94922 h 0.2168 v 2.76562 h -0.2168 c -0.0547,-0.38671 -0.10938,-0.63476 -0.16406,-0.74414 -0.0703,-0.13671 -0.18556,-0.24413 -0.34571,-0.32226 -0.16016,-0.0781 -0.40625,-0.11719 -0.73828,-0.11719 h -1.74609 v 2.61914 c 0,0.35156 0.0156,0.56543 0.0469,0.6416 0.0312,0.0762 0.0859,0.13672 0.16407,0.18164 0.0781,0.0449 0.22656,0.0674 0.44531,0.0674 h 1.34765 c 0.44922,0 0.77539,-0.0312 0.97852,-0.0937 0.20312,-0.0625 0.39843,-0.18555 0.58594,-0.36914 0.24218,-0.24219 0.49023,-0.60743 0.74414,-1.09571 h 0.23437 l -0.68554,1.99219 h -6.12305 v -0.2168 h 0.28125 c 0.1875,0 0.36523,-0.0449 0.5332,-0.13476 0.125,-0.0625 0.20996,-0.15625 0.25489,-0.28125 0.0449,-0.125 0.0674,-0.38086 0.0674,-0.76758 v -5.16211 c 0,-0.5039 -0.0508,-0.81445 -0.15235,-0.93164 -0.14062,-0.15624 -0.375,-0.23437 -0.70312,-0.23438 h -0.28125 v -0.21679 h 6.12305 l 0.0879,1.74023 h -0.22852 c -0.082,-0.41796 -0.17286,-0.70507 -0.27246,-0.86133 -0.0996,-0.15624 -0.24708,-0.27538 -0.44238,-0.35742 -0.15626,-0.0586 -0.43165,-0.0879 -0.82617,-0.0879 z"
             style="font-size:12px;font-family:'Times New Roman';-inkscape-font-specification:'Times New Roman';text-align:center;text-anchor:middle"
             id="path3175" />
          <path
             inkscape:connector-curvature="0"
             d="m 282.30322,567.19112 v 1.82178 h 0.84424 c 0.19368,0 0.33553,-0.0427 0.42554,-0.12817 0.09,-0.0855 0.14982,-0.25464 0.17944,-0.50757 h 0.12647 v 1.56885 h -0.12647 c -0.002,-0.18002 -0.0256,-0.31218 -0.0701,-0.39649 -0.0444,-0.0843 -0.10596,-0.14754 -0.18457,-0.1897 -0.0786,-0.0421 -0.19539,-0.0632 -0.35034,-0.0632 h -0.84424 v 1.45606 c 0,0.2347 0.0148,0.38964 0.0444,0.46484 0.0228,0.057 0.0706,0.10596 0.14355,0.14697 0.10026,0.0547 0.20508,0.082 0.31445,0.082 h 0.16748 v 0.12647 h -1.98925 v -0.12647 h 0.16406 c 0.19141,0 0.3304,-0.0558 0.41699,-0.16748 0.0547,-0.0729 0.082,-0.24837 0.082,-0.52636 v -2.99414 c 0,-0.2347 -0.0148,-0.38965 -0.0444,-0.46485 -0.0228,-0.057 -0.0695,-0.10595 -0.14014,-0.14697 -0.098,-0.0547 -0.2028,-0.082 -0.31445,-0.082 h -0.16406 v -0.12647 h 3.44873 l 0.0444,1.01856 h -0.11963 c -0.0592,-0.21647 -0.12818,-0.37541 -0.20679,-0.47681 -0.0786,-0.10139 -0.17545,-0.17488 -0.29052,-0.22046 -0.11508,-0.0456 -0.29338,-0.0684 -0.53491,-0.0684 z"
             style="font-size:7px;font-family:'Times New Roman';-inkscape-font-specification:'Times New Roman';text-align:center;text-anchor:middle"
             id="path3177" />
          <path
             inkscape:connector-curvature="0"
             d="m 287.32764,566.83224 c 0.60156,0 1.1228,0.22843 1.56372,0.6853 0.44091,0.45687 0.66137,1.0271 0.66137,1.71069 0,0.70411 -0.22217,1.28858 -0.6665,1.75342 -0.44434,0.46484 -0.9821,0.69727 -1.61328,0.69727 -0.63802,0 -1.17407,-0.22673 -1.60816,-0.68018 -0.43408,-0.45345 -0.65112,-1.0402 -0.65112,-1.76025 0,-0.736 0.25065,-1.33643 0.75195,-1.80127 0.43522,-0.40332 0.95589,-0.60498 1.56202,-0.60498 z m -0.0649,0.24951 c -0.41472,0 -0.7474,0.15381 -0.99805,0.46142 -0.31218,0.38282 -0.46826,0.94337 -0.46826,1.68164 0,0.75652 0.16178,1.33871 0.48535,1.74659 0.24837,0.30989 0.57649,0.46484 0.98437,0.46484 0.43522,0 0.79468,-0.16976 1.07837,-0.50928 0.28369,-0.33951 0.42554,-0.875 0.42554,-1.60644 0,-0.79297 -0.15609,-1.38428 -0.46826,-1.77393 -0.25066,-0.30989 -0.59701,-0.46484 -1.03906,-0.46484 z"
             style="font-size:7px;font-family:'Times New Roman';-inkscape-font-specification:'Times New Roman';text-align:center;text-anchor:middle"
             id="path3179" />
          <path
             inkscape:connector-curvature="0"
             d="m 294.55664,571.57296 h -1.2373 l -1.56885,-2.16699 c -0.11621,0.005 -0.21078,0.007 -0.28369,0.007 -0.0296,0 -0.0615,-5.7e-4 -0.0957,-0.002 -0.0342,-10e-4 -0.0695,-0.003 -0.10595,-0.005 v 1.34668 c 0,0.29166 0.0319,0.47282 0.0957,0.54345 0.0866,0.10026 0.21647,0.15039 0.38965,0.15039 h 0.18115 v 0.12647 h -1.98584 v -0.12647 h 0.17432 c 0.19596,0 0.3361,-0.0638 0.42041,-0.1914 0.0478,-0.0706 0.0718,-0.23812 0.0718,-0.50244 v -2.99414 c 0,-0.29167 -0.0319,-0.47282 -0.0957,-0.54346 -0.0889,-0.10026 -0.22103,-0.15039 -0.39648,-0.15039 h -0.17432 v -0.12647 h 1.68848 c 0.49218,1e-5 0.85506,0.0359 1.08862,0.10767 0.23356,0.0718 0.4318,0.20394 0.59473,0.39648 0.16292,0.19255 0.24438,0.42213 0.24438,0.68872 0,0.28484 -0.0929,0.53207 -0.27856,0.7417 -0.18572,0.20964 -0.47339,0.35775 -0.86304,0.44434 l 0.95703,1.32959 c 0.21875,0.30534 0.40674,0.50814 0.56397,0.6084 0.15722,0.10026 0.3623,0.16406 0.61523,0.1914 z m -3.2915,-2.38233 c 0.0433,10e-6 0.0809,5.8e-4 0.11279,0.002 0.0319,10e-4 0.0581,0.002 0.0786,0.002 0.44206,0 0.77531,-0.0957 0.99976,-0.28711 0.22444,-0.1914 0.33667,-0.43522 0.33667,-0.73144 0,-0.28939 -0.0906,-0.52466 -0.27173,-0.70581 -0.18115,-0.18115 -0.42098,-0.27173 -0.71948,-0.27173 -0.13217,0 -0.31104,0.0217 -0.53662,0.0649 z"
             style="font-size:7px;font-family:'Times New Roman';-inkscape-font-specification:'Times New Roman';text-align:center;text-anchor:middle"
             id="path3181" />
          <path
             inkscape:connector-curvature="0"
             d="m 299.59131,567.06466 v -0.12647 h 1.64062 v 0.12647 h -0.17431 c -0.1823,0 -0.32244,0.0763 -0.42041,0.229 -0.0479,0.0706 -0.0718,0.23471 -0.0718,0.49219 v 1.87988 c 0,0.46485 -0.0462,0.82544 -0.13843,1.08179 -0.0923,0.25635 -0.27344,0.47624 -0.54346,0.65967 -0.27002,0.18343 -0.63745,0.27514 -1.10229,0.27514 -0.50586,0 -0.88981,-0.0877 -1.15186,-0.26318 -0.26204,-0.17546 -0.44775,-0.4113 -0.55712,-0.70752 -0.0729,-0.2028 -0.10938,-0.58333 -0.10938,-1.1416 v -1.81152 c 0,-0.28483 -0.0393,-0.47168 -0.11792,-0.56055 -0.0786,-0.0889 -0.20565,-0.1333 -0.3811,-0.1333 h -0.17432 v -0.12647 h 2.00293 v 0.12647 h -0.17773 c -0.19141,0 -0.32813,0.0604 -0.41016,0.18115 -0.057,0.082 -0.0854,0.25293 -0.0854,0.5127 v 2.02001 c 0,0.18002 0.0165,0.38624 0.0496,0.61866 0.033,0.23242 0.0928,0.41357 0.17944,0.54345 0.0866,0.12989 0.21135,0.23698 0.37427,0.32129 0.16292,0.0843 0.36287,0.12647 0.59986,0.12647 0.30305,0 0.57421,-0.0661 0.81347,-0.19824 0.23926,-0.13216 0.40275,-0.30135 0.49048,-0.50757 0.0877,-0.20622 0.13159,-0.55542 0.13159,-1.04761 v -1.87646 c 0,-0.28939 -0.0319,-0.47054 -0.0957,-0.54346 -0.0889,-0.10026 -0.22103,-0.15039 -0.39649,-0.15039 z"
             style="font-size:7px;font-family:'Times New Roman';-inkscape-font-specification:'Times New Roman';text-align:center;text-anchor:middle"
             id="path3183" />
          <path
             inkscape:connector-curvature="0"
             d="m 304.52002,566.83224 v 1.60302 h -0.12647 c -0.041,-0.30761 -0.1145,-0.55256 -0.22045,-0.73486 -0.10596,-0.18229 -0.25692,-0.32698 -0.45289,-0.43408 -0.19596,-0.10709 -0.39876,-0.16064 -0.60839,-0.16065 -0.23698,10e-6 -0.43295,0.0723 -0.58789,0.21704 -0.15495,0.1447 -0.23243,0.30933 -0.23243,0.4939 0,0.14128 0.049,0.27002 0.14698,0.38623 0.14127,0.1709 0.47737,0.39877 1.0083,0.6836 0.43294,0.23242 0.72859,0.41072 0.88696,0.53491 0.15836,0.12419 0.28027,0.27059 0.36572,0.43921 0.0855,0.16862 0.12817,0.34521 0.12818,0.52978 -10e-6,0.35091 -0.13616,0.6534 -0.40845,0.90747 -0.2723,0.25407 -0.62264,0.38111 -1.05103,0.38111 -0.13444,0 -0.2609,-0.0103 -0.37939,-0.0308 -0.0706,-0.0114 -0.21704,-0.053 -0.43921,-0.12475 -0.22217,-0.0718 -0.36287,-0.10767 -0.42212,-0.10767 -0.057,0 -0.10197,0.0171 -0.13501,0.0513 -0.033,0.0342 -0.0575,0.10482 -0.0735,0.21192 h -0.12647 v -1.58936 h 0.12647 c 0.0592,0.33268 0.13899,0.58163 0.23925,0.74683 0.10026,0.1652 0.2535,0.30249 0.45972,0.41186 0.20622,0.10938 0.43237,0.16406 0.67847,0.16406 0.28483,0 0.50984,-0.0752 0.67505,-0.22558 0.16519,-0.15039 0.2478,-0.32813 0.2478,-0.53321 0,-0.11393 -0.0313,-0.229 -0.094,-0.34521 -0.0627,-0.11621 -0.16007,-0.22445 -0.29223,-0.32471 -0.0889,-0.0684 -0.33155,-0.21362 -0.72803,-0.43579 -0.39649,-0.22216 -0.67847,-0.39933 -0.84595,-0.53149 -0.16748,-0.13216 -0.29451,-0.27799 -0.3811,-0.4375 -0.0866,-0.1595 -0.12988,-0.33496 -0.12988,-0.52637 0,-0.33268 0.1276,-0.61922 0.38281,-0.85962 0.25521,-0.24039 0.57991,-0.36059 0.97412,-0.36059 0.24609,0 0.507,0.0604 0.78272,0.18115 0.1276,0.057 0.2176,0.0855 0.27001,0.0855 0.0592,0 0.10767,-0.0177 0.14527,-0.053 0.0376,-0.0353 0.0678,-0.10652 0.0906,-0.21362 z"
             style="font-size:7px;font-family:'Times New Roman';-inkscape-font-specification:'Times New Roman';text-align:center;text-anchor:middle"
             id="path3185" />
          <path
             inkscape:connector-curvature="0"
             d="m 306.66992,567.19112 v 1.83203 h 1.01856 c 0.26432,10e-6 0.44091,-0.0399 0.52978,-0.11963 0.11849,-0.10481 0.18457,-0.28938 0.19824,-0.55371 h 0.12647 v 1.61329 h -0.12647 c -0.0319,-0.22559 -0.0638,-0.37028 -0.0957,-0.43409 -0.041,-0.0797 -0.10824,-0.14241 -0.20166,-0.18799 -0.0934,-0.0456 -0.23698,-0.0684 -0.43066,-0.0684 h -1.01856 v 1.52783 c 0,0.20508 0.009,0.32983 0.0274,0.37427 0.0182,0.0444 0.0501,0.0797 0.0957,0.10595 0.0456,0.0262 0.13216,0.0393 0.25976,0.0393 h 0.78614 c 0.26204,0 0.45231,-0.0182 0.5708,-0.0547 0.11848,-0.0365 0.23242,-0.10823 0.34179,-0.21533 0.14128,-0.14128 0.28597,-0.35433 0.43409,-0.63916 h 0.13672 l -0.39991,1.16211 h -3.57177 v -0.12647 h 0.16406 c 0.10937,0 0.21305,-0.0262 0.31103,-0.0786 0.0729,-0.0365 0.12248,-0.0911 0.14869,-0.16406 0.0262,-0.0729 0.0393,-0.22217 0.0393,-0.44776 v -3.01123 c 0,-0.29394 -0.0296,-0.47509 -0.0889,-0.54345 -0.082,-0.0911 -0.21875,-0.13672 -0.41015,-0.13672 h -0.16406 v -0.12647 h 3.57177 l 0.0513,1.01514 h -0.1333 c -0.0478,-0.24381 -0.10083,-0.41129 -0.15893,-0.50244 -0.0581,-0.0911 -0.14413,-0.16064 -0.25806,-0.2085 -0.0911,-0.0342 -0.25179,-0.0513 -0.48193,-0.0513 z"
             style="font-size:7px;font-family:'Times New Roman';-inkscape-font-specification:'Times New Roman';text-align:center;text-anchor:middle"
             id="path3187" />
          <path
             inkscape:connector-curvature="0"
             d="m 313.79639,566.83224 c 0.60156,0 1.1228,0.22843 1.56372,0.6853 0.44091,0.45687 0.66137,1.0271 0.66137,1.71069 0,0.70411 -0.22217,1.28858 -0.6665,1.75342 -0.44434,0.46484 -0.9821,0.69727 -1.61328,0.69727 -0.63802,0 -1.17407,-0.22673 -1.60816,-0.68018 -0.43408,-0.45345 -0.65112,-1.0402 -0.65112,-1.76025 0,-0.736 0.25065,-1.33643 0.75195,-1.80127 0.43522,-0.40332 0.95589,-0.60498 1.56202,-0.60498 z m -0.0649,0.24951 c -0.41472,0 -0.7474,0.15381 -0.99805,0.46142 -0.31218,0.38282 -0.46826,0.94337 -0.46826,1.68164 0,0.75652 0.16178,1.33871 0.48535,1.74659 0.24837,0.30989 0.57649,0.46484 0.98437,0.46484 0.43522,0 0.79468,-0.16976 1.07837,-0.50928 0.28369,-0.33951 0.42554,-0.875 0.42554,-1.60644 0,-0.79297 -0.15609,-1.38428 -0.46826,-1.77393 -0.25066,-0.30989 -0.59701,-0.46484 -1.03906,-0.46484 z"
             style="font-size:7px;font-family:'Times New Roman';-inkscape-font-specification:'Times New Roman';text-align:center;text-anchor:middle"
             id="path3189" />
          <path
             inkscape:connector-curvature="0"
             d="m 317.72705,567.19112 v 1.82178 h 0.84424 c 0.19368,0 0.33553,-0.0427 0.42554,-0.12817 0.09,-0.0855 0.14981,-0.25464 0.17944,-0.50757 h 0.12646 v 1.56885 h -0.12646 c -0.002,-0.18002 -0.0256,-0.31218 -0.0701,-0.39649 -0.0444,-0.0843 -0.10596,-0.14754 -0.18457,-0.1897 -0.0786,-0.0421 -0.1954,-0.0632 -0.35034,-0.0632 h -0.84424 v 1.45606 c 0,0.2347 0.0148,0.38964 0.0444,0.46484 0.0228,0.057 0.0706,0.10596 0.14356,0.14697 0.10026,0.0547 0.20508,0.082 0.31445,0.082 h 0.16748 v 0.12647 h -1.98926 v -0.12647 h 0.16407 c 0.1914,0 0.3304,-0.0558 0.41699,-0.16748 0.0547,-0.0729 0.082,-0.24837 0.082,-0.52636 v -2.99414 c 0,-0.2347 -0.0148,-0.38965 -0.0444,-0.46485 -0.0228,-0.057 -0.0695,-0.10595 -0.14014,-0.14697 -0.098,-0.0547 -0.2028,-0.082 -0.31445,-0.082 h -0.16407 v -0.12647 h 3.44874 l 0.0444,1.01856 h -0.11963 c -0.0593,-0.21647 -0.12818,-0.37541 -0.20679,-0.47681 -0.0786,-0.10139 -0.17546,-0.17488 -0.29052,-0.22046 -0.11508,-0.0456 -0.29338,-0.0684 -0.53492,-0.0684 z"
             style="font-size:7px;font-family:'Times New Roman';-inkscape-font-specification:'Times New Roman';text-align:center;text-anchor:middle"
             id="path3191" />
          <path
             inkscape:connector-curvature="0"
             d="m 284.7793,577.96122 v 1.92871 c -10e-6,0.41667 0.0456,0.67545 0.13672,0.77637 0.12369,0.14322 0.31087,0.21484 0.56152,0.21484 h 0.25391 v 0.18066 h -2.83692 v -0.18066 h 0.24902 c 0.27995,0 0.48015,-0.0911 0.60059,-0.27344 0.0651,-0.10091 0.0977,-0.34017 0.0977,-0.71777 v -4.27735 c 0,-0.41666 -0.0439,-0.67545 -0.13184,-0.77636 -0.12695,-0.14323 -0.31575,-0.21484 -0.56641,-0.21485 h -0.24902 v -0.18066 h 2.42676 c 0.59244,1e-5 1.05957,0.061 1.40137,0.1831 0.34179,0.12208 0.62987,0.32797 0.86425,0.61768 0.23437,0.28972 0.35156,0.63314 0.35157,1.03027 -10e-6,0.54037 -0.17823,0.97983 -0.53467,1.31836 -0.35645,0.33855 -0.86019,0.50782 -1.51123,0.50782 -0.15951,0 -0.33204,-0.0114 -0.51758,-0.0342 -0.18555,-0.0228 -0.38412,-0.057 -0.5957,-0.10254 z m 0,-0.27832 c 0.17252,0.0326 0.32552,0.057 0.45898,0.0732 0.13346,0.0163 0.24739,0.0244 0.3418,0.0244 0.33854,1e-5 0.63069,-0.13102 0.87646,-0.39306 0.24577,-0.26204 0.36865,-0.6014 0.36866,-1.01807 -10e-6,-0.28645 -0.0586,-0.55257 -0.17579,-0.79834 -0.11719,-0.24576 -0.2832,-0.42968 -0.49804,-0.55176 -0.21485,-0.12206 -0.45899,-0.1831 -0.73242,-0.1831 -0.16602,0 -0.37924,0.0309 -0.63965,0.0928 z"
             style="font-size:10px;font-family:'Times New Roman';-inkscape-font-specification:'Times New Roman';text-align:center;text-anchor:middle"
             id="path3193" />
          <path
             inkscape:connector-curvature="0"
             d="m 293.06543,574.62137 v -0.18066 h 2.34375 v 0.18066 h -0.24902 c -0.26043,1e-5 -0.46062,0.10906 -0.60059,0.32715 -0.0684,0.10092 -0.10254,0.33529 -0.10254,0.70313 v 2.68554 c 0,0.66407 -0.0659,1.1792 -0.19775,1.54541 -0.13184,0.36622 -0.39063,0.68034 -0.77637,0.94239 -0.38575,0.26204 -0.91065,0.39306 -1.57471,0.39306 -0.72266,0 -1.27116,-0.12532 -1.6455,-0.37597 -0.37436,-0.25065 -0.63965,-0.58757 -0.7959,-1.01075 -0.10417,-0.28971 -0.15625,-0.83333 -0.15625,-1.63085 v -2.5879 c 0,-0.40689 -0.0562,-0.67382 -0.16846,-0.80078 -0.11231,-0.12694 -0.29378,-0.19042 -0.54443,-0.19043 h -0.24903 v -0.18066 h 2.86133 v 0.18066 h -0.25391 c -0.27344,1e-5 -0.46875,0.0863 -0.58593,0.25879 -0.0814,0.1172 -0.12208,0.36134 -0.12207,0.73242 v 2.88575 c -10e-6,0.25716 0.0236,0.55176 0.0708,0.88379 0.0472,0.33203 0.13265,0.59082 0.25635,0.77636 0.12369,0.18555 0.30191,0.33855 0.53466,0.45899 0.23275,0.12044 0.51839,0.18066 0.85694,0.18066 0.43294,0 0.8203,-0.0944 1.16211,-0.2832 0.34179,-0.1888 0.57535,-0.4305 0.70068,-0.7251 0.12532,-0.29459 0.18798,-0.79345 0.18799,-1.49658 v -2.68067 c -1e-5,-0.4134 -0.0456,-0.67219 -0.13672,-0.77636 -0.12696,-0.14323 -0.31576,-0.21484 -0.56641,-0.21485 z"
             style="line-height:113.99999857%"
             id="path3195" />
          <path
             inkscape:connector-curvature="0"
             d="m 300.14062,577.6829 c 0.45898,0.0977 0.80241,0.25391 1.03028,0.46875 0.31575,0.29948 0.47363,0.66569 0.47363,1.09863 0,0.32878 -0.10417,0.64372 -0.3125,0.94482 -0.20834,0.30111 -0.49398,0.52084 -0.85693,0.65918 -0.36296,0.13835 -0.91716,0.20752 -1.6626,0.20752 h -3.125 v -0.18066 h 0.24902 c 0.2767,0 0.47526,-0.0879 0.59571,-0.26367 0.0749,-0.11393 0.1123,-0.35645 0.1123,-0.72754 v -4.27735 c 0,-0.41015 -0.0472,-0.66893 -0.1416,-0.77636 -0.12695,-0.14323 -0.31576,-0.21484 -0.56641,-0.21485 h -0.24902 v -0.18066 h 2.86133 c 0.53385,1e-5 0.96191,0.0391 1.28418,0.11719 0.48827,0.11719 0.861,0.32471 1.11816,0.62256 0.25716,0.29785 0.38574,0.64046 0.38574,1.02783 0,0.33203 -0.10091,0.62907 -0.30273,0.89111 -0.20183,0.26205 -0.49968,0.45655 -0.89356,0.5835 z m -2.55859,-0.26367 c 0.12044,0.0228 0.25797,0.0399 0.4126,0.0513 0.15462,0.0114 0.3247,0.0171 0.51025,0.0171 0.47526,1e-5 0.83252,-0.0513 1.07178,-0.1538 0.23925,-0.10254 0.42236,-0.2596 0.54932,-0.4712 0.12694,-0.21158 0.19042,-0.4427 0.19043,-0.69335 -1e-5,-0.38737 -0.15789,-0.71777 -0.47364,-0.99122 -0.31576,-0.27343 -0.77637,-0.41015 -1.38183,-0.41015 -0.32553,0 -0.61849,0.0358 -0.87891,0.10742 z m 0,3.16406 c 0.3776,0.0879 0.75032,0.13183 1.11817,0.13183 0.58918,0 1.0384,-0.13265 1.34765,-0.39795 0.30924,-0.26529 0.46386,-0.59326 0.46387,-0.98388 -1e-5,-0.25716 -0.07,-0.50456 -0.20996,-0.74219 -0.13998,-0.23763 -0.36785,-0.4248 -0.6836,-0.56152 -0.31575,-0.13672 -0.70638,-0.20508 -1.17187,-0.20508 -0.20183,0 -0.37435,0.003 -0.51758,0.01 -0.14323,0.007 -0.25879,0.0179 -0.34668,0.0342 z"
             style="line-height:113.99999857%"
             id="path3197" />
          <path
             inkscape:connector-curvature="0"
             d="m 307.93359,579.23075 0.16114,0.0342 -0.56641,1.79687 h -5.12695 v -0.18066 h 0.24902 c 0.27995,0 0.48014,-0.0911 0.60059,-0.27344 0.0683,-0.10416 0.10253,-0.34505 0.10254,-0.72265 v -4.27247 c -10e-6,-0.4134 -0.0456,-0.67219 -0.13672,-0.77636 -0.12696,-0.14323 -0.31576,-0.21484 -0.56641,-0.21485 h -0.24902 v -0.18066 h 2.99804 v 0.18066 c -0.35156,-0.003 -0.59814,0.0293 -0.73974,0.0977 -0.14161,0.0684 -0.23845,0.15463 -0.29053,0.25879 -0.0521,0.10417 -0.0781,0.35319 -0.0781,0.74707 v 4.16016 c -1e-5,0.27018 0.026,0.45573 0.0781,0.55664 0.0391,0.0684 0.0993,0.11881 0.18066,0.15136 0.0814,0.0326 0.33529,0.0488 0.76172,0.0488 h 0.4834 c 0.50781,0 0.86426,-0.0374 1.06934,-0.1123 0.20507,-0.0749 0.39225,-0.20752 0.56152,-0.39795 0.16927,-0.19043 0.33854,-0.49072 0.50781,-0.90088 z"
             style="line-height:113.99999857%"
             id="path3199" />
          <path
             inkscape:connector-curvature="0"
             d="m 311.40039,580.88114 v 0.18066 h -2.83691 v -0.18066 h 0.23437 c 0.27344,0 0.47201,-0.0797 0.5957,-0.23926 0.0781,-0.10416 0.11719,-0.35482 0.11719,-0.75195 v -4.27735 c 0,-0.33528 -0.0212,-0.55663 -0.0635,-0.66406 -0.0326,-0.0814 -0.0993,-0.15136 -0.2002,-0.20996 -0.14323,-0.0781 -0.29297,-0.11718 -0.44922,-0.11719 h -0.23437 v -0.18066 h 2.83691 v 0.18066 h -0.23926 c -0.27018,1e-5 -0.46712,0.0798 -0.59082,0.23926 -0.0814,0.10417 -0.12207,0.35482 -0.12207,0.75195 v 4.27735 c 0,0.33529 0.0212,0.55664 0.0635,0.66406 0.0325,0.0814 0.10091,0.15137 0.20508,0.20996 0.13997,0.0781 0.28808,0.11719 0.44433,0.11719 z"
             style="line-height:113.99999857%"
             id="path3201" />
          <path
             inkscape:connector-curvature="0"
             d="m 317.6748,574.28934 0.15137,2.25098 h -0.15137 c -0.20182,-0.67382 -0.48991,-1.15885 -0.86425,-1.45508 -0.37436,-0.29622 -0.82358,-0.44433 -1.34766,-0.44434 -0.43946,10e-6 -0.83659,0.1115 -1.19141,0.33448 -0.35482,0.22299 -0.63395,0.57862 -0.8374,1.06689 -0.20345,0.48829 -0.30518,1.09538 -0.30517,1.82129 -1e-5,0.59896 0.096,1.11817 0.28808,1.55762 0.19206,0.43945 0.48096,0.77637 0.8667,1.01074 0.38574,0.23438 0.82601,0.35156 1.3208,0.35156 0.42969,0 0.80892,-0.092 1.1377,-0.27588 0.32877,-0.18391 0.6901,-0.54931 1.08398,-1.09619 l 0.15137,0.0977 c -0.33204,0.58919 -0.71941,1.02051 -1.16211,1.29394 -0.44271,0.27344 -0.96843,0.41016 -1.57715,0.41016 -1.09701,0 -1.94661,-0.4069 -2.54883,-1.2207 -0.44922,-0.60547 -0.67383,-1.31836 -0.67383,-2.13867 0,-0.66081 0.14812,-1.2679 0.44434,-1.82129 0.29622,-0.55338 0.70394,-0.98226 1.22315,-1.28662 0.5192,-0.30436 1.08642,-0.45654 1.70166,-0.45655 0.47851,10e-6 0.95051,0.1172 1.41601,0.35156 0.13671,0.0716 0.23437,0.10743 0.29297,0.10743 0.0879,0 0.16438,-0.0309 0.22949,-0.0928 0.0846,-0.0879 0.14485,-0.20995 0.18067,-0.36621 z"
             style="line-height:113.99999857%"
             id="path3203" />
        </g>
        <g
           transform="translate(0,8)"
           style="font-style:normal;font-weight:normal;font-size:6px;line-height:109.00000334%;font-family:Sans;text-align:center;letter-spacing:0px;word-spacing:0px;text-anchor:middle;fill:#000000;fill-opacity:1;stroke:none"
           id="flowRoot5586">
          <path
             inkscape:connector-curvature="0"
             d="m 271.76367,582.7374 h 0.41309 l 1.83105,4.11621 h -0.60058 l -0.54493,-1.21289 h -1.74023 l -0.51562,1.21289 h -0.60059 z m 0.8584,2.38184 -0.65918,-1.48242 -0.6123,1.48242 z"
             style="line-height:122.00000286%"
             id="path3206" />
          <path
             inkscape:connector-curvature="0"
             d="m 274.4707,586.84775 v -4.08691 h 1.37989 c 0.55663,0 0.99706,0.0835 1.32128,0.25049 0.32422,0.16699 0.58203,0.4126 0.77344,0.73681 0.1914,0.32423 0.28711,0.67774 0.28711,1.06055 0,0.27344 -0.0527,0.53516 -0.1582,0.78516 -0.10547,0.25 -0.25586,0.46972 -0.45117,0.65918 -0.19923,0.19531 -0.43067,0.34277 -0.69434,0.44238 -0.1543,0.0605 -0.2959,0.10107 -0.4248,0.12158 -0.12891,0.0205 -0.37501,0.0308 -0.73829,0.0308 z m 1.31836,-3.56543 h -0.73242 v 3.04395 h 0.75 c 0.29297,0 0.52051,-0.02 0.68262,-0.0601 0.1621,-0.04 0.29736,-0.0908 0.40576,-0.15234 0.10839,-0.0615 0.20752,-0.13721 0.29736,-0.22705 0.28906,-0.29297 0.43359,-0.66309 0.4336,-1.11036 -1e-5,-0.43945 -0.14844,-0.79784 -0.44532,-1.07519 -0.10937,-0.10351 -0.23486,-0.18847 -0.37646,-0.25488 -0.1416,-0.0664 -0.27588,-0.11035 -0.40283,-0.13184 -0.12696,-0.0215 -0.33106,-0.0322 -0.61231,-0.0322 z"
             style="line-height:122.00000286%"
             id="path3208" />
          <path
             inkscape:connector-curvature="0"
             d="m 281.55469,582.76084 h 0.58301 l -1.72852,4.11035 h -0.13184 l -1.76367,-4.11035 h 0.58887 l 1.23047,2.87402 z"
             style="line-height:122.00000286%"
             id="path3210" />
          <path
             inkscape:connector-curvature="0"
             d="m 282.5918,582.76084 h 0.58593 v 4.09277 h -0.58593 z"
             style="line-height:122.00000286%"
             id="path3212" />
          <path
             inkscape:connector-curvature="0"
             d="m 287.61328,585.90439 v 0.64454 c -0.42969,0.23437 -0.92578,0.35156 -1.48828,0.35156 -0.45703,0 -0.84473,-0.0918 -1.16309,-0.27539 -0.31836,-0.1836 -0.57031,-0.43653 -0.75586,-0.75879 -0.18554,-0.32227 -0.27832,-0.6709 -0.27832,-1.0459 0,-0.5957 0.21241,-1.09668 0.63721,-1.50293 0.4248,-0.40625 0.94873,-0.60937 1.57178,-0.60937 0.42968,0 0.90722,0.1123 1.43262,0.33691 v 0.62988 c -0.47852,-0.27343 -0.9463,-0.41015 -1.40332,-0.41015 -0.46876,0 -0.85792,0.14795 -1.16748,0.44384 -0.30958,0.29591 -0.46436,0.66651 -0.46436,1.11182 0,0.44922 0.15234,0.81836 0.45703,1.10742 0.30469,0.28907 0.69433,0.4336 1.16895,0.4336 0.49609,0 0.98046,-0.15235 1.45312,-0.45704 z"
             style="line-height:122.00000286%"
             id="path3214" />
          <path
             inkscape:connector-curvature="0"
             d="m 288.33984,582.76084 h 2.32032 v 0.52148 h -1.73438 v 1.24805 h 1.67578 v 0.52442 h -1.67578 v 1.27148 h 1.79004 v 0.52148 h -2.37598 z"
             style="line-height:122.00000286%"
             id="path3216" />
          <path
             inkscape:connector-curvature="0"
             d="m 295.52344,586.85361 -0.47461,-0.55664 c -0.041,0.041 -0.11133,0.10059 -0.21094,0.17871 l -0.006,0.006 c -0.13867,0.11524 -0.31006,0.21387 -0.51416,0.2959 -0.2041,0.082 -0.396,0.12305 -0.57568,0.12305 -0.28321,0 -0.52344,-0.0923 -0.72071,-0.27686 -0.19726,-0.18457 -0.29589,-0.40966 -0.29589,-0.67529 0,-0.19141 0.0483,-0.36426 0.14502,-0.51855 0.0967,-0.1543 0.25439,-0.31153 0.47314,-0.47168 l 0.009,-0.009 c 0.1289,-0.0957 0.24023,-0.16895 0.33398,-0.21973 -0.30859,-0.33008 -0.46289,-0.64648 -0.46289,-0.94922 0,-0.27929 0.0947,-0.50585 0.28418,-0.67969 0.18945,-0.17382 0.43555,-0.26073 0.73828,-0.26074 0.29688,10e-6 0.54102,0.085 0.73243,0.25488 0.1914,0.16993 0.2871,0.38673 0.2871,0.65039 0,0.35743 -0.23828,0.70509 -0.71484,1.04297 l -0.041,0.0322 0.57421,0.65918 c 0.16797,-0.18359 0.31445,-0.40332 0.43946,-0.65918 h 0.58593 c -0.14062,0.36328 -0.3623,0.7207 -0.66503,1.07227 l 0.8291,0.96093 z m -0.9668,-0.84668 0.13184,-0.12011 -0.66504,-0.76758 -0.25782,0.18164 c -0.30468,0.20508 -0.45703,0.41309 -0.45703,0.62402 0,0.11524 0.0498,0.21387 0.14942,0.2959 0.0996,0.082 0.21972,0.12305 0.36035,0.12305 0.10937,0 0.23291,-0.0312 0.3706,-0.0937 0.1377,-0.0625 0.26026,-0.14356 0.36768,-0.24317 z m -0.37793,-1.58203 0.22266,-0.1582 c 0.20703,-0.14648 0.31054,-0.3164 0.31054,-0.50977 0,-0.11913 -0.0435,-0.21874 -0.13037,-0.29882 -0.0869,-0.0801 -0.19678,-0.12012 -0.32959,-0.12012 -0.1289,0 -0.23535,0.0371 -0.31933,0.11133 -0.084,0.0742 -0.12598,0.16699 -0.12598,0.27832 0,0.10742 0.0332,0.22412 0.0996,0.35009 0.0664,0.12598 0.15723,0.24171 0.27246,0.34717 z"
             style="line-height:122.00000286%"
             id="path3218" />
          <path
             inkscape:connector-curvature="0"
             d="m 299.72461,582.7374 h 0.41309 l 1.83105,4.11621 h -0.60059 l -0.54492,-1.21289 h -1.74023 l -0.51563,1.21289 h -0.60058 z m 0.8584,2.38184 -0.65918,-1.48242 -0.61231,1.48242 z"
             style="line-height:122.00000286%"
             id="path3220" />
          <path
             inkscape:connector-curvature="0"
             d="m 303.43945,585.13682 -0.44531,-0.26953 c -0.2793,-0.16992 -0.47803,-0.3374 -0.59619,-0.50245 -0.11817,-0.16503 -0.17725,-0.35497 -0.17725,-0.56982 0,-0.32226 0.11182,-0.58398 0.33545,-0.78516 0.22363,-0.20116 0.51416,-0.30175 0.87158,-0.30175 0.3418,0 0.65528,0.0957 0.94043,0.2871 v 0.66504 c -0.29492,-0.2832 -0.6123,-0.4248 -0.95214,-0.4248 -0.19141,0 -0.34864,0.0444 -0.47168,0.1333 -0.12305,0.0889 -0.18458,0.20264 -0.18457,0.34131 -10e-6,0.12305 0.0449,0.23828 0.13476,0.3457 0.0898,0.10743 0.23535,0.21973 0.43652,0.33692 l 0.44825,0.26367 c 0.49999,0.29687 0.74999,0.67578 0.75,1.13672 -10e-6,0.32812 -0.10987,0.59472 -0.32959,0.7998 -0.21973,0.20508 -0.50538,0.30762 -0.85694,0.30762 -0.40429,0 -0.77246,-0.12403 -1.10449,-0.37207 v -0.74414 c 0.31641,0.40039 0.68262,0.60058 1.09863,0.60058 0.1836,0 0.33643,-0.0513 0.4585,-0.15381 0.12207,-0.10253 0.1831,-0.23095 0.18311,-0.38525 -10e-6,-0.25 -0.17969,-0.48633 -0.53907,-0.70898 z"
             style="line-height:122.00000286%"
             id="path3222" />
          <path
             inkscape:connector-curvature="0"
             d="m 306.19336,585.13682 -0.44531,-0.26953 c -0.2793,-0.16992 -0.47803,-0.3374 -0.59619,-0.50245 -0.11817,-0.16503 -0.17725,-0.35497 -0.17725,-0.56982 0,-0.32226 0.11182,-0.58398 0.33545,-0.78516 0.22363,-0.20116 0.51416,-0.30175 0.87158,-0.30175 0.3418,0 0.65527,0.0957 0.94043,0.2871 v 0.66504 c -0.29492,-0.2832 -0.61231,-0.4248 -0.95215,-0.4248 -0.19141,0 -0.34863,0.0444 -0.47168,0.1333 -0.12305,0.0889 -0.18457,0.20264 -0.18457,0.34131 0,0.12305 0.0449,0.23828 0.13477,0.3457 0.0898,0.10743 0.23535,0.21973 0.43652,0.33692 l 0.44824,0.26367 c 0.5,0.29687 0.75,0.67578 0.75,1.13672 0,0.32812 -0.10986,0.59472 -0.32959,0.7998 -0.21973,0.20508 -0.50537,0.30762 -0.85693,0.30762 -0.4043,0 -0.77246,-0.12403 -1.10449,-0.37207 v -0.74414 c 0.3164,0.40039 0.68261,0.60058 1.09863,0.60058 0.18359,0 0.33642,-0.0513 0.4585,-0.15381 0.12206,-0.10253 0.1831,-0.23095 0.1831,-0.38525 0,-0.25 -0.17969,-0.48633 -0.53906,-0.70898 z"
             style="line-height:122.00000286%"
             id="path3224" />
          <path
             inkscape:connector-curvature="0"
             d="m 307.93945,582.76084 h 0.58594 v 4.09277 h -0.58594 z"
             style="line-height:122.00000286%"
             id="path3226" />
          <path
             inkscape:connector-curvature="0"
             d="m 310.44727,585.13682 -0.44532,-0.26953 c -0.27929,-0.16992 -0.47802,-0.3374 -0.59619,-0.50245 -0.11816,-0.16503 -0.17724,-0.35497 -0.17724,-0.56982 0,-0.32226 0.11181,-0.58398 0.33544,-0.78516 0.22364,-0.20116 0.51416,-0.30175 0.87159,-0.30175 0.34179,0 0.65527,0.0957 0.94043,0.2871 v 0.66504 c -0.29493,-0.2832 -0.61231,-0.4248 -0.95215,-0.4248 -0.19141,0 -0.34864,0.0444 -0.47168,0.1333 -0.12305,0.0889 -0.18457,0.20264 -0.18457,0.34131 0,0.12305 0.0449,0.23828 0.13476,0.3457 0.0899,0.10743 0.23535,0.21973 0.43653,0.33692 l 0.44824,0.26367 c 0.5,0.29687 0.75,0.67578 0.75,1.13672 0,0.32812 -0.10987,0.59472 -0.32959,0.7998 -0.21973,0.20508 -0.50537,0.30762 -0.85693,0.30762 -0.4043,0 -0.77247,-0.12403 -1.1045,-0.37207 v -0.74414 c 0.31641,0.40039 0.68262,0.60058 1.09864,0.60058 0.18359,0 0.33642,-0.0513 0.45849,-0.15381 0.12207,-0.10253 0.18311,-0.23095 0.18311,-0.38525 0,-0.25 -0.17969,-0.48633 -0.53906,-0.70898 z"
             style="line-height:122.00000286%"
             id="path3228" />
          <path
             inkscape:connector-curvature="0"
             d="m 311.83887,582.75498 h 3.41894 v 0.52148 h -1.42676 v 3.57715 h -0.58886 v -3.57715 h -1.40332 z"
             style="line-height:122.00000286%"
             id="path3230" />
          <path
             inkscape:connector-curvature="0"
             d="m 317.11523,582.7374 h 0.41309 l 1.83105,4.11621 h -0.60058 l -0.54492,-1.21289 h -1.74024 l -0.51562,1.21289 h -0.60059 z m 0.8584,2.38184 -0.65918,-1.48242 -0.6123,1.48242 z"
             style="line-height:122.00000286%"
             id="path3232" />
          <path
             inkscape:connector-curvature="0"
             d="m 323.06836,582.76084 h 0.55664 v 4.09277 h -0.50391 l -2.73632,-3.14941 v 3.14941 h -0.55079 v -4.09277 h 0.47461 l 2.75977,3.17578 z"
             style="line-height:122.00000286%"
             id="path3234" />
          <path
             inkscape:connector-curvature="0"
             d="m 328.03125,585.90439 v 0.64454 c -0.42969,0.23437 -0.92578,0.35156 -1.48828,0.35156 -0.45703,0 -0.84473,-0.0918 -1.16309,-0.27539 -0.31836,-0.1836 -0.57031,-0.43653 -0.75586,-0.75879 -0.18554,-0.32227 -0.27832,-0.6709 -0.27832,-1.0459 0,-0.5957 0.2124,-1.09668 0.63721,-1.50293 0.4248,-0.40625 0.94873,-0.60937 1.57178,-0.60937 0.42968,0 0.90722,0.1123 1.43261,0.33691 v 0.62988 c -0.47851,-0.27343 -0.94629,-0.41015 -1.40332,-0.41015 -0.46875,0 -0.85791,0.14795 -1.16748,0.44384 -0.30957,0.29591 -0.46435,0.66651 -0.46435,1.11182 0,0.44922 0.15234,0.81836 0.45703,1.10742 0.30469,0.28907 0.69433,0.4336 1.16894,0.4336 0.4961,0 0.98047,-0.15235 1.45313,-0.45704 z"
             style="line-height:122.00000286%"
             id="path3236" />
          <path
             inkscape:connector-curvature="0"
             d="m 328.75781,582.76084 h 2.32031 v 0.52148 h -1.73437 v 1.24805 h 1.67578 v 0.52442 h -1.67578 v 1.27148 h 1.79004 v 0.52148 h -2.37598 z"
             style="line-height:122.00000286%"
             id="path3238" />
          <path
             inkscape:connector-curvature="0"
             d="m 266.02148,589.51838 c 0.63281,10e-6 1.15967,0.2002 1.58057,0.60059 0.42089,0.40039 0.63134,0.90235 0.63135,1.50586 -1e-5,0.60352 -0.21241,1.10303 -0.63721,1.49854 -0.42481,0.3955 -0.96045,0.59326 -1.60693,0.59326 -0.61719,0 -1.13135,-0.19776 -1.54248,-0.59326 -0.41114,-0.39551 -0.6167,-0.89112 -0.6167,-1.48682 0,-0.61133 0.20703,-1.11719 0.62109,-1.51758 0.41406,-0.40039 0.9375,-0.60058 1.57031,-0.60059 z m 0.0234,0.55665 c -0.46875,0 -0.854,0.14648 -1.15576,0.43945 -0.30176,0.29297 -0.45264,0.66699 -0.45264,1.12207 0,0.44141 0.15137,0.80859 0.4541,1.10156 0.30274,0.29297 0.68164,0.43945 1.13672,0.43945 0.45703,0 0.83838,-0.14941 1.14405,-0.44824 0.30566,-0.29882 0.45849,-0.67089 0.45849,-1.11621 0,-0.43359 -0.15283,-0.79834 -0.45849,-1.09424 -0.30567,-0.29589 -0.68116,-0.44384 -1.12647,-0.44384 z"
             style="font-variant:normal;font-stretch:normal;font-family:'Gill Sans MT';-inkscape-font-specification:'Gill Sans MT'"
             id="path3240" />
          <path
             inkscape:connector-curvature="0"
             d="m 270.34277,593.66975 h -1.38574 v -4.09277 h 1.07227 c 0.33789,0 0.60156,0.0454 0.79101,0.13623 0.18945,0.0908 0.33398,0.21582 0.4336,0.375 0.0996,0.15918 0.14941,0.34326 0.14941,0.55225 0,0.40234 -0.20801,0.69043 -0.62402,0.86425 0.29882,0.0566 0.53662,0.17969 0.71338,0.36914 0.17675,0.18946 0.26513,0.41602 0.26513,0.67969 0,0.20899 -0.0537,0.39551 -0.16113,0.55957 -0.10743,0.16406 -0.26514,0.29785 -0.47314,0.40137 -0.20802,0.10351 -0.46827,0.15527 -0.78077,0.15527 z m -0.2959,-3.57129 h -0.5039 v 1.23047 h 0.38965 c 0.3125,0 0.53466,-0.0596 0.6665,-0.17871 0.13183,-0.11914 0.19775,-0.27343 0.19775,-0.46289 0,-0.39257 -0.25,-0.58886 -0.75,-0.58887 z m 0.0439,1.75196 h -0.54785 v 1.29785 h 0.57715 c 0.32031,0 0.53759,-0.0249 0.65185,-0.0747 0.11426,-0.0498 0.20605,-0.12744 0.27539,-0.23291 0.0693,-0.10547 0.104,-0.21875 0.10401,-0.33984 -10e-6,-0.125 -0.0366,-0.23926 -0.10987,-0.34278 -0.0732,-0.10351 -0.17724,-0.18066 -0.31201,-0.23144 -0.13477,-0.0508 -0.34766,-0.0762 -0.63867,-0.0762 z"
             style="font-variant:normal;font-stretch:normal;font-family:'Gill Sans MT';-inkscape-font-specification:'Gill Sans MT'"
             id="path3242" />
          <path
             inkscape:connector-curvature="0"
             d="m 271.9834,589.57112 h 3.41894 v 0.52148 h -1.42675 v 3.57715 h -0.58887 v -3.57715 h -1.40332 z"
             style="font-variant:normal;font-stretch:normal;font-family:'Gill Sans MT';-inkscape-font-specification:'Gill Sans MT'"
             id="path3244" />
          <path
             inkscape:connector-curvature="0"
             d="m 277.25977,589.55354 h 0.41308 l 1.83106,4.11621 h -0.60059 l -0.54492,-1.21289 h -1.74024 l -0.51562,1.21289 h -0.60059 z m 0.85839,2.38184 -0.65918,-1.48242 -0.6123,1.48242 z"
             style="font-variant:normal;font-stretch:normal;font-family:'Gill Sans MT';-inkscape-font-specification:'Gill Sans MT'"
             id="path3246" />
          <path
             inkscape:connector-curvature="0"
             d="m 279.9668,589.57698 h 0.58593 v 4.09277 h -0.58593 z"
             style="font-variant:normal;font-stretch:normal;font-family:'Gill Sans MT';-inkscape-font-specification:'Gill Sans MT'"
             id="path3248" />
          <path
             inkscape:connector-curvature="0"
             d="m 284.71289,589.57698 h 0.55664 v 4.09277 h -0.50391 l -2.73632,-3.14941 v 3.14941 h -0.55078 v -4.09277 h 0.4746 l 2.75977,3.17578 z"
             style="font-variant:normal;font-stretch:normal;font-family:'Gill Sans MT';-inkscape-font-specification:'Gill Sans MT'"
             id="path3250" />
          <path
             inkscape:connector-curvature="0"
             d="m 287.45508,589.55354 h 0.41308 l 1.83106,4.11621 h -0.60059 l -0.54492,-1.21289 h -1.74023 l -0.51563,1.21289 h -0.60058 z m 0.8584,2.38184 -0.65918,-1.48242 -0.61231,1.48242 z"
             style="font-variant:normal;font-stretch:normal;font-family:'Gill Sans MT';-inkscape-font-specification:'Gill Sans MT'"
             id="path3252" />
          <path
             inkscape:connector-curvature="0"
             d="m 291.54199,593.66975 h -1.38574 v -4.09277 h 1.07227 c 0.33788,0 0.60156,0.0454 0.79101,0.13623 0.18945,0.0908 0.33398,0.21582 0.43359,0.375 0.0996,0.15918 0.14942,0.34326 0.14942,0.55225 0,0.40234 -0.20801,0.69043 -0.62402,0.86425 0.29882,0.0566 0.53661,0.17969 0.71337,0.36914 0.17676,0.18946 0.26514,0.41602 0.26514,0.67969 0,0.20899 -0.0537,0.39551 -0.16113,0.55957 -0.10743,0.16406 -0.26514,0.29785 -0.47315,0.40137 -0.20801,0.10351 -0.46826,0.15527 -0.78076,0.15527 z m -0.2959,-3.57129 h -0.5039 v 1.23047 h 0.38965 c 0.31249,0 0.53466,-0.0596 0.6665,-0.17871 0.13183,-0.11914 0.19775,-0.27343 0.19775,-0.46289 0,-0.39257 -0.25,-0.58886 -0.75,-0.58887 z m 0.0439,1.75196 h -0.54785 v 1.29785 h 0.57715 c 0.32031,0 0.53759,-0.0249 0.65185,-0.0747 0.11426,-0.0498 0.20605,-0.12744 0.27539,-0.23291 0.0693,-0.10547 0.104,-0.21875 0.10401,-0.33984 -1e-5,-0.125 -0.0366,-0.23926 -0.10987,-0.34278 -0.0732,-0.10351 -0.17725,-0.18066 -0.31201,-0.23144 -0.13477,-0.0508 -0.34766,-0.0762 -0.63867,-0.0762 z"
             style="font-variant:normal;font-stretch:normal;font-family:'Gill Sans MT';-inkscape-font-specification:'Gill Sans MT'"
             id="path3254" />
          <path
             inkscape:connector-curvature="0"
             d="m 293.53125,589.57698 h 0.58594 v 3.55957 h 1.84277 v 0.5332 h -2.42871 z"
             style="font-variant:normal;font-stretch:normal;font-family:'Gill Sans MT';-inkscape-font-specification:'Gill Sans MT'"
             id="path3256" />
          <path
             inkscape:connector-curvature="0"
             d="m 296.47266,589.57698 h 2.32031 v 0.52148 h -1.73438 v 1.24805 h 1.67578 v 0.52441 h -1.67578 v 1.27149 h 1.79004 v 0.52148 h -2.37597 z"
             style="font-variant:normal;font-stretch:normal;font-family:'Gill Sans MT';-inkscape-font-specification:'Gill Sans MT'"
             id="path3258" />
          <path
             inkscape:connector-curvature="0"
             d="m 301.14258,589.57698 h 0.58594 v 4.09277 h -0.58594 z"
             style="font-variant:normal;font-stretch:normal;font-family:'Gill Sans MT';-inkscape-font-specification:'Gill Sans MT'"
             id="path3260" />
          <path
             inkscape:connector-curvature="0"
             d="m 305.89453,589.57698 h 0.54492 v 4.09277 h -0.58886 v -3.18457 l -1.25977,1.58203 h -0.1084 l -1.27148,-1.58203 v 3.18457 H 302.625 v -4.09277 h 0.55078 l 1.36231,1.68164 z"
             style="font-variant:normal;font-stretch:normal;font-family:'Gill Sans MT';-inkscape-font-specification:'Gill Sans MT'"
             id="path3262" />
          <path
             inkscape:connector-curvature="0"
             d="m 310.58203,589.57698 h 0.54492 v 4.09277 h -0.58886 v -3.18457 l -1.25977,1.58203 h -0.1084 l -1.27148,-1.58203 v 3.18457 h -0.58594 v -4.09277 h 0.55078 l 1.36231,1.68164 z"
             style="font-variant:normal;font-stretch:normal;font-family:'Gill Sans MT';-inkscape-font-specification:'Gill Sans MT'"
             id="path3264" />
          <path
             inkscape:connector-curvature="0"
             d="m 312.01172,589.57698 h 2.32031 v 0.52148 h -1.73437 v 1.24805 h 1.67578 v 0.52441 h -1.67578 v 1.27149 h 1.79004 v 0.52148 h -2.37598 z"
             style="font-variant:normal;font-stretch:normal;font-family:'Gill Sans MT';-inkscape-font-specification:'Gill Sans MT'"
             id="path3266" />
          <path
             inkscape:connector-curvature="0"
             d="m 315.01758,593.66389 v -4.08691 h 1.37988 c 0.55664,0 0.99707,0.0835 1.32129,0.25049 0.32422,0.16699 0.58203,0.4126 0.77344,0.73681 0.1914,0.32422 0.2871,0.67774 0.28711,1.06055 -10e-6,0.27344 -0.0527,0.53516 -0.15821,0.78516 -0.10547,0.25 -0.25586,0.46972 -0.45117,0.65918 -0.19922,0.19531 -0.43067,0.34277 -0.69433,0.44238 -0.1543,0.0605 -0.29591,0.10107 -0.42481,0.12158 -0.12891,0.0205 -0.375,0.0308 -0.73828,0.0308 z m 1.31836,-3.56543 h -0.73242 v 3.04395 h 0.75 c 0.29296,0 0.5205,-0.02 0.68261,-0.0601 0.16211,-0.04 0.29736,-0.0908 0.40576,-0.15234 0.1084,-0.0615 0.20752,-0.13721 0.29737,-0.22705 0.28906,-0.29297 0.43359,-0.66309 0.43359,-1.11036 0,-0.43945 -0.14844,-0.79785 -0.44531,-1.07519 -0.10938,-0.10351 -0.23487,-0.18847 -0.37647,-0.25488 -0.1416,-0.0664 -0.27588,-0.11035 -0.40283,-0.13184 -0.12695,-0.0215 -0.33105,-0.0322 -0.6123,-0.0322 z"
             style="font-variant:normal;font-stretch:normal;font-family:'Gill Sans MT';-inkscape-font-specification:'Gill Sans MT'"
             id="path3268" />
          <path
             inkscape:connector-curvature="0"
             d="m 319.51758,589.57698 h 0.58594 v 4.09277 h -0.58594 z"
             style="font-variant:normal;font-stretch:normal;font-family:'Gill Sans MT';-inkscape-font-specification:'Gill Sans MT'"
             id="path3270" />
          <path
             inkscape:connector-curvature="0"
             d="m 322.31836,589.55354 h 0.41309 l 1.83105,4.11621 h -0.60059 l -0.54492,-1.21289 h -1.74023 l -0.51563,1.21289 h -0.60058 z m 0.8584,2.38184 -0.65918,-1.48242 -0.61231,1.48242 z"
             style="font-variant:normal;font-stretch:normal;font-family:'Gill Sans MT';-inkscape-font-specification:'Gill Sans MT'"
             id="path3272" />
          <path
             inkscape:connector-curvature="0"
             d="m 324.6709,589.57112 h 3.41894 v 0.52148 h -1.42675 v 3.57715 h -0.58887 v -3.57715 h -1.40332 z"
             style="font-variant:normal;font-stretch:normal;font-family:'Gill Sans MT';-inkscape-font-specification:'Gill Sans MT'"
             id="path3274" />
          <path
             inkscape:connector-curvature="0"
             d="m 328.64062,589.57698 h 2.32032 v 0.52148 h -1.73438 v 1.24805 h 1.67578 v 0.52441 h -1.67578 v 1.27149 h 1.79004 v 0.52148 h -2.37598 z"
             style="font-variant:normal;font-stretch:normal;font-family:'Gill Sans MT';-inkscape-font-specification:'Gill Sans MT'"
             id="path3276" />
          <path
             inkscape:connector-curvature="0"
             d="m 331.64062,589.57698 h 0.58594 v 3.55957 h 1.84278 v 0.5332 h -2.42872 z"
             style="font-variant:normal;font-stretch:normal;font-family:'Gill Sans MT';-inkscape-font-specification:'Gill Sans MT'"
             id="path3278" />
          <path
             inkscape:connector-curvature="0"
             d="m 337.0459,589.57698 h 0.70898 l -1.51172,1.92773 v 2.16504 h -0.60058 v -2.16504 l -1.51172,-1.92773 h 0.70898 l 1.09571,1.41211 z"
             style="font-variant:normal;font-stretch:normal;font-family:'Gill Sans MT';-inkscape-font-specification:'Gill Sans MT'"
             id="path3280" />
          <path
             inkscape:connector-curvature="0"
             d="m 279.41016,602.59834 c 0.63281,0 1.15966,0.2002 1.58056,0.60059 0.4209,0.40039 0.63135,0.90234 0.63135,1.50586 0,0.60351 -0.21241,1.10302 -0.63721,1.49853 -0.42481,0.39551 -0.96045,0.59326 -1.60693,0.59326 -0.61719,0 -1.13135,-0.19775 -1.54248,-0.59326 -0.41113,-0.39551 -0.6167,-0.89111 -0.6167,-1.48682 0,-0.61132 0.20703,-1.11718 0.62109,-1.51757 0.41406,-0.40039 0.9375,-0.60059 1.57032,-0.60059 z m 0.0234,0.55664 c -0.46875,10e-6 -0.854,0.14649 -1.15576,0.43945 -0.30176,0.29298 -0.45264,0.667 -0.45263,1.12207 -1e-5,0.44141 0.15136,0.8086 0.4541,1.10157 0.30273,0.29297 0.68164,0.43945 1.13672,0.43945 0.45702,0 0.83837,-0.14941 1.14404,-0.44824 0.30566,-0.29883 0.45849,-0.6709 0.45849,-1.11621 0,-0.43359 -0.15283,-0.79834 -0.45849,-1.09424 -0.30567,-0.2959 -0.68116,-0.44384 -1.12647,-0.44385 z"
             style="font-variant:normal;font-stretch:normal;font-family:'Gill Sans MT';-inkscape-font-specification:'Gill Sans MT'"
             id="path3282" />
          <path
             inkscape:connector-curvature="0"
             d="m 282.35156,602.65693 h 2.18262 v 0.52149 h -1.59668 v 1.14258 h 1.59668 v 0.52148 h -1.59668 v 1.90723 h -0.58594 z"
             style="font-variant:normal;font-stretch:normal;font-family:'Gill Sans MT';-inkscape-font-specification:'Gill Sans MT'"
             id="path3284" />
          <path
             inkscape:connector-curvature="0"
             d="m 285.16406,602.65693 h 2.18262 v 0.52149 H 285.75 v 1.14258 h 1.59668 v 0.52148 H 285.75 v 1.90723 h -0.58594 z"
             style="font-variant:normal;font-stretch:normal;font-family:'Gill Sans MT';-inkscape-font-specification:'Gill Sans MT'"
             id="path3286" />
          <path
             inkscape:connector-curvature="0"
             d="m 287.97656,602.65693 h 0.58594 v 4.09278 h -0.58594 z"
             style="font-variant:normal;font-stretch:normal;font-family:'Gill Sans MT';-inkscape-font-specification:'Gill Sans MT'"
             id="path3288" />
          <path
             inkscape:connector-curvature="0"
             d="m 292.99805,605.80049 v 0.64453 c -0.42969,0.23438 -0.92579,0.35156 -1.48828,0.35156 -0.45704,0 -0.84473,-0.0918 -1.16309,-0.27539 -0.31836,-0.18359 -0.57031,-0.43652 -0.75586,-0.75879 -0.18555,-0.32226 -0.27832,-0.67089 -0.27832,-1.0459 0,-0.5957 0.2124,-1.09667 0.63721,-1.50292 0.4248,-0.40625 0.94873,-0.60938 1.57177,-0.60938 0.42969,0 0.90723,0.11231 1.43262,0.33691 v 0.62989 c -0.47852,-0.27344 -0.94629,-0.41016 -1.40332,-0.41016 -0.46875,0 -0.85791,0.14795 -1.16748,0.44385 -0.30957,0.2959 -0.46436,0.6665 -0.46435,1.11181 -10e-6,0.44923 0.15234,0.81837 0.45703,1.10743 0.30468,0.28906 0.69433,0.43359 1.16894,0.43359 0.49609,0 0.98047,-0.15234 1.45313,-0.45703 z"
             style="font-variant:normal;font-stretch:normal;font-family:'Gill Sans MT';-inkscape-font-specification:'Gill Sans MT'"
             id="path3290" />
          <path
             inkscape:connector-curvature="0"
             d="m 293.72461,602.65693 h 2.32031 v 0.52149 h -1.73437 v 1.24805 h 1.67578 v 0.52441 h -1.67578 v 1.27148 h 1.79004 v 0.52149 h -2.37598 z"
             style="font-variant:normal;font-stretch:normal;font-family:'Gill Sans MT';-inkscape-font-specification:'Gill Sans MT'"
             id="path3292" />
          <path
             inkscape:connector-curvature="0"
             d="m 296.74219,606.74971 v -4.09278 h 1.02539 c 0.41406,10e-6 0.74267,0.10255 0.98584,0.30762 0.24316,0.20508 0.36474,0.48243 0.36474,0.83203 0,0.23829 -0.0596,0.44434 -0.17871,0.61817 -0.11914,0.17383 -0.29004,0.30371 -0.51269,0.38965 0.13085,0.0859 0.25878,0.20312 0.38379,0.35156 0.12499,0.14844 0.30078,0.40723 0.52734,0.77637 0.14258,0.23242 0.25683,0.40722 0.34277,0.52441 l 0.2168,0.29297 h -0.69726 l -0.17872,-0.26953 c -0.006,-0.01 -0.0176,-0.0264 -0.0351,-0.0498 l -0.11426,-0.16113 -0.18164,-0.29883 -0.19629,-0.31933 c -0.1211,-0.16797 -0.23193,-0.30176 -0.33252,-0.40137 -0.10059,-0.0996 -0.19141,-0.17139 -0.27246,-0.21533 -0.0811,-0.044 -0.21729,-0.0659 -0.40869,-0.0659 h -0.15235 v 1.78125 z m 0.76172,-3.59473 h -0.17579 v 1.29199 h 0.22266 c 0.29687,1e-5 0.50049,-0.0254 0.61084,-0.0762 0.11035,-0.0508 0.19629,-0.12744 0.25781,-0.22998 0.0615,-0.10254 0.0923,-0.21923 0.0923,-0.3501 0,-0.1289 -0.0342,-0.2456 -0.10254,-0.35009 -0.0684,-0.10449 -0.16455,-0.17822 -0.28857,-0.2212 -0.12403,-0.043 -0.3296,-0.0644 -0.6167,-0.0644 z"
             style="font-variant:normal;font-stretch:normal;font-family:'Gill Sans MT';-inkscape-font-specification:'Gill Sans MT'"
             id="path3294" />
          <path
             inkscape:connector-curvature="0"
             d="m 301.35937,605.03291 -0.44531,-0.26953 c -0.2793,-0.16992 -0.47803,-0.3374 -0.59619,-0.50244 -0.11816,-0.16504 -0.17725,-0.35498 -0.17725,-0.56983 0,-0.32226 0.11182,-0.58398 0.33545,-0.78515 0.22364,-0.20117 0.51416,-0.30176 0.87159,-0.30176 0.34179,0 0.65527,0.0957 0.94043,0.28711 v 0.66504 c -0.29493,-0.2832 -0.61231,-0.4248 -0.95215,-0.42481 -0.19141,10e-6 -0.34864,0.0444 -0.47168,0.1333 -0.12305,0.0889 -0.18457,0.20264 -0.18457,0.34131 0,0.12305 0.0449,0.23829 0.13476,0.34571 0.0898,0.10742 0.23535,0.21973 0.43653,0.33691 l 0.44824,0.26367 c 0.5,0.29688 0.75,0.67579 0.75,1.13672 0,0.32813 -0.10987,0.59473 -0.32959,0.79981 -0.21973,0.20507 -0.50537,0.30761 -0.85693,0.30761 -0.4043,0 -0.77247,-0.12402 -1.1045,-0.37207 v -0.74414 c 0.31641,0.40039 0.68262,0.60059 1.09864,0.60059 0.18359,0 0.33642,-0.0513 0.45849,-0.15381 0.12207,-0.10254 0.18311,-0.23096 0.18311,-0.38525 0,-0.25 -0.17969,-0.48633 -0.53907,-0.70899 z"
             style="font-variant:normal;font-stretch:normal;font-family:'Gill Sans MT';-inkscape-font-specification:'Gill Sans MT'"
             id="path3296" />
          <path
             inkscape:connector-curvature="0"
             d="m 307.2832,606.74971 -0.47461,-0.55664 c -0.041,0.041 -0.11133,0.10058 -0.21093,0.17871 l -0.006,0.006 c -0.13868,0.11523 -0.31006,0.21387 -0.51416,0.2959 -0.20411,0.082 -0.396,0.12304 -0.57569,0.12304 -0.2832,0 -0.52344,-0.0923 -0.7207,-0.27685 -0.19727,-0.18457 -0.2959,-0.40967 -0.2959,-0.6753 0,-0.1914 0.0483,-0.36425 0.14502,-0.51855 0.0967,-0.1543 0.2544,-0.31152 0.47315,-0.47168 l 0.009,-0.009 c 0.12891,-0.0957 0.24024,-0.16894 0.33399,-0.21973 -0.3086,-0.33007 -0.46289,-0.64648 -0.46289,-0.94921 0,-0.2793 0.0947,-0.50586 0.28418,-0.67969 0.18945,-0.17383 0.43554,-0.26074 0.73828,-0.26074 0.29687,0 0.54101,0.085 0.73242,0.25488 0.1914,0.16992 0.28711,0.38672 0.28711,0.65039 0,0.35742 -0.23828,0.70508 -0.71484,1.04297 l -0.041,0.0322 0.57422,0.65918 c 0.16797,-0.18359 0.31445,-0.40331 0.43945,-0.65918 h 0.58594 c -0.14063,0.36329 -0.36231,0.72071 -0.66504,1.07227 l 0.8291,0.96094 z m -0.96679,-0.84668 0.13183,-0.12012 -0.66504,-0.76758 -0.25781,0.18164 c -0.30469,0.20508 -0.45703,0.41309 -0.45703,0.62403 0,0.11523 0.0498,0.21386 0.14941,0.2959 0.0996,0.082 0.21973,0.12304 0.36035,0.12304 0.10938,0 0.23291,-0.0312 0.37061,-0.0937 0.13769,-0.0625 0.26025,-0.14355 0.36768,-0.24316 z m -0.37793,-1.58203 0.22265,-0.15821 c 0.20703,-0.14648 0.31055,-0.3164 0.31055,-0.50976 0,-0.11914 -0.0435,-0.21875 -0.13037,-0.29883 -0.0869,-0.0801 -0.19678,-0.12011 -0.32959,-0.12012 -0.12891,1e-5 -0.23535,0.0371 -0.31934,0.11133 -0.084,0.0742 -0.12598,0.167 -0.12597,0.27832 -1e-5,0.10743 0.0332,0.22413 0.0996,0.3501 0.0664,0.12598 0.15722,0.2417 0.27246,0.34717 z"
             style="font-variant:normal;font-stretch:normal;font-family:'Gill Sans MT';-inkscape-font-specification:'Gill Sans MT'"
             id="path3298" />
          <path
             inkscape:connector-curvature="0"
             d="m 313.70508,605.80049 v 0.64453 c -0.42969,0.23438 -0.92579,0.35156 -1.48828,0.35156 -0.45704,0 -0.84473,-0.0918 -1.16309,-0.27539 -0.31836,-0.18359 -0.57031,-0.43652 -0.75586,-0.75879 -0.18555,-0.32226 -0.27832,-0.67089 -0.27832,-1.0459 0,-0.5957 0.2124,-1.09667 0.63721,-1.50292 0.4248,-0.40625 0.94873,-0.60938 1.57178,-0.60938 0.42968,0 0.90722,0.11231 1.43261,0.33691 v 0.62989 c -0.47852,-0.27344 -0.94629,-0.41016 -1.40332,-0.41016 -0.46875,0 -0.85791,0.14795 -1.16748,0.44385 -0.30957,0.2959 -0.46435,0.6665 -0.46435,1.11181 0,0.44923 0.15234,0.81837 0.45703,1.10743 0.30468,0.28906 0.69433,0.43359 1.16894,0.43359 0.49609,0 0.98047,-0.15234 1.45313,-0.45703 z"
             style="font-variant:normal;font-stretch:normal;font-family:'Gill Sans MT';-inkscape-font-specification:'Gill Sans MT'"
             id="path3300" />
          <path
             inkscape:connector-curvature="0"
             d="m 315.73828,602.6335 h 0.41309 l 1.83105,4.11621 h -0.60058 l -0.54493,-1.21289 h -1.74023 l -0.51563,1.21289 h -0.60058 z m 0.8584,2.38183 -0.65918,-1.48242 -0.6123,1.48242 z"
             style="font-variant:normal;font-stretch:normal;font-family:'Gill Sans MT';-inkscape-font-specification:'Gill Sans MT'"
             id="path3302" />
          <path
             inkscape:connector-curvature="0"
             d="m 318.45703,606.74971 v -4.09278 h 1.02539 c 0.41406,10e-6 0.74268,0.10255 0.98584,0.30762 0.24316,0.20508 0.36474,0.48243 0.36475,0.83203 -10e-6,0.23829 -0.0596,0.44434 -0.17871,0.61817 -0.11915,0.17383 -0.29004,0.30371 -0.5127,0.38965 0.13086,0.0859 0.25879,0.20312 0.38379,0.35156 0.125,0.14844 0.30078,0.40723 0.52734,0.77637 0.14258,0.23242 0.25684,0.40722 0.34278,0.52441 l 0.21679,0.29297 h -0.69726 l -0.17871,-0.26953 c -0.006,-0.01 -0.0176,-0.0264 -0.0352,-0.0498 l -0.11426,-0.16113 -0.18164,-0.29883 -0.19629,-0.31933 c -0.12109,-0.16797 -0.23193,-0.30176 -0.33252,-0.40137 -0.10058,-0.0996 -0.1914,-0.17139 -0.27246,-0.21533 -0.0811,-0.044 -0.21728,-0.0659 -0.40869,-0.0659 h -0.15234 v 1.78125 z m 0.76172,-3.59473 h -0.17578 v 1.29199 h 0.22265 c 0.29688,1e-5 0.50049,-0.0254 0.61084,-0.0762 0.11035,-0.0508 0.19629,-0.12744 0.25782,-0.22998 0.0615,-0.10254 0.0923,-0.21923 0.0923,-0.3501 0,-0.1289 -0.0342,-0.2456 -0.10254,-0.35009 -0.0684,-0.10449 -0.16455,-0.17822 -0.28857,-0.2212 -0.12403,-0.043 -0.32959,-0.0644 -0.6167,-0.0644 z"
             style="font-variant:normal;font-stretch:normal;font-family:'Gill Sans MT';-inkscape-font-specification:'Gill Sans MT'"
             id="path3304" />
          <path
             inkscape:connector-curvature="0"
             d="m 323.07422,605.03291 -0.44531,-0.26953 c -0.2793,-0.16992 -0.47803,-0.3374 -0.5962,-0.50244 -0.11816,-0.16504 -0.17724,-0.35498 -0.17724,-0.56983 0,-0.32226 0.11181,-0.58398 0.33545,-0.78515 0.22363,-0.20117 0.51416,-0.30176 0.87158,-0.30176 0.3418,0 0.65527,0.0957 0.94043,0.28711 v 0.66504 c -0.29492,-0.2832 -0.61231,-0.4248 -0.95215,-0.42481 -0.19141,10e-6 -0.34863,0.0444 -0.47168,0.1333 -0.12305,0.0889 -0.18457,0.20264 -0.18457,0.34131 0,0.12305 0.0449,0.23829 0.13477,0.34571 0.0898,0.10742 0.23535,0.21973 0.43652,0.33691 l 0.44824,0.26367 c 0.5,0.29688 0.75,0.67579 0.75,1.13672 0,0.32813 -0.10986,0.59473 -0.32959,0.79981 -0.21973,0.20507 -0.50537,0.30761 -0.85693,0.30761 -0.4043,0 -0.77246,-0.12402 -1.10449,-0.37207 v -0.74414 c 0.3164,0.40039 0.68261,0.60059 1.09863,0.60059 0.18359,0 0.33642,-0.0513 0.4585,-0.15381 0.12206,-0.10254 0.1831,-0.23096 0.1831,-0.38525 0,-0.25 -0.17969,-0.48633 -0.53906,-0.70899 z"
             style="font-variant:normal;font-stretch:normal;font-family:'Gill Sans MT';-inkscape-font-specification:'Gill Sans MT'"
             id="path3306" />
          <path
             inkscape:connector-curvature="0"
             d="m 267.66797,613.28969 v -4.09278 h 1.02539 c 0.41406,10e-6 0.74267,0.10255 0.98584,0.30762 0.24316,0.20508 0.36474,0.48242 0.36475,0.83203 -10e-6,0.23829 -0.0596,0.44434 -0.17872,0.61817 -0.11914,0.17383 -0.29004,0.30371 -0.51269,0.38964 0.13086,0.0859 0.25879,0.20313 0.38379,0.35157 0.125,0.14844 0.30078,0.40722 0.52734,0.77636 0.14258,0.23243 0.25683,0.40723 0.34278,0.52442 l 0.21679,0.29297 h -0.69726 l -0.17871,-0.26954 c -0.006,-0.01 -0.0176,-0.0264 -0.0352,-0.0498 l -0.11426,-0.16113 -0.18164,-0.29883 -0.19629,-0.31934 c -0.12109,-0.16796 -0.23193,-0.30175 -0.33252,-0.40136 -0.10059,-0.0996 -0.19141,-0.17139 -0.27246,-0.21534 -0.0811,-0.0439 -0.21729,-0.0659 -0.40869,-0.0659 h -0.15234 v 1.78125 z m 0.76172,-3.59473 h -0.17578 v 1.29199 h 0.22265 c 0.29688,0 0.50049,-0.0254 0.61084,-0.0762 0.11035,-0.0508 0.19629,-0.12744 0.25781,-0.22998 0.0615,-0.10254 0.0923,-0.21924 0.0923,-0.3501 0,-0.1289 -0.0342,-0.2456 -0.10254,-0.3501 -0.0684,-0.10448 -0.16455,-0.17822 -0.28857,-0.22119 -0.12403,-0.043 -0.32959,-0.0644 -0.6167,-0.0644 z"
             style="font-variant:normal;font-stretch:normal;font-family:'Gill Sans MT';-inkscape-font-specification:'Gill Sans MT'"
             id="path3308" />
          <path
             inkscape:connector-curvature="0"
             d="m 271.27148,609.19691 h 2.32032 v 0.52149 h -1.73438 v 1.24804 h 1.67578 v 0.52442 h -1.67578 v 1.27148 h 1.79004 v 0.52149 h -2.37598 z"
             style="font-variant:normal;font-stretch:normal;font-family:'Gill Sans MT';-inkscape-font-specification:'Gill Sans MT'"
             id="path3310" />
          <path
             inkscape:connector-curvature="0"
             d="m 275.28516,611.57289 -0.44532,-0.26953 c -0.27929,-0.16992 -0.47802,-0.3374 -0.59619,-0.50244 -0.11816,-0.16504 -0.17724,-0.35498 -0.17724,-0.56983 0,-0.32226 0.11181,-0.58398 0.33545,-0.78515 0.22363,-0.20117 0.51415,-0.30176 0.87158,-0.30176 0.34179,0 0.65527,0.0957 0.94043,0.28711 v 0.66504 c -0.29493,-0.2832 -0.61231,-0.4248 -0.95215,-0.42481 -0.19141,10e-6 -0.34864,0.0444 -0.47168,0.1333 -0.12305,0.0889 -0.18457,0.20264 -0.18457,0.34131 0,0.12305 0.0449,0.23829 0.13476,0.3457 0.0899,0.10743 0.23535,0.21973 0.43653,0.33692 l 0.44824,0.26367 c 0.5,0.29688 0.75,0.67578 0.75,1.13672 0,0.32812 -0.10987,0.59473 -0.32959,0.7998 -0.21973,0.20508 -0.50537,0.30762 -0.85693,0.30762 -0.4043,0 -0.77246,-0.12402 -1.1045,-0.37207 v -0.74414 c 0.31641,0.40039 0.68262,0.60059 1.09864,0.60059 0.18359,0 0.33642,-0.0513 0.45849,-0.15381 0.12207,-0.10254 0.18311,-0.23096 0.18311,-0.38526 0,-0.25 -0.17969,-0.48632 -0.53906,-0.70898 z"
             style="font-variant:normal;font-stretch:normal;font-family:'Gill Sans MT';-inkscape-font-specification:'Gill Sans MT'"
             id="path3312" />
          <path
             inkscape:connector-curvature="0"
             d="m 276.99316,613.28969 v -4.09864 h 1.29786 c 0.39062,10e-6 0.70214,0.10548 0.93457,0.31641 0.23241,0.21094 0.34863,0.49414 0.34863,0.84961 0,0.23828 -0.0596,0.44922 -0.17871,0.63281 -0.11915,0.1836 -0.28223,0.3169 -0.48926,0.3999 -0.20703,0.083 -0.50391,0.12452 -0.89063,0.12452 h -0.43359 v 1.77539 z m 1.19532,-3.57715 h -0.60645 v 1.28027 h 0.6416 c 0.23828,0 0.42188,-0.0562 0.55078,-0.16846 0.12891,-0.1123 0.19336,-0.27294 0.19336,-0.48193 0,-0.41992 -0.25976,-0.62988 -0.77929,-0.62988 z"
             style="font-variant:normal;font-stretch:normal;font-family:'Gill Sans MT';-inkscape-font-specification:'Gill Sans MT'"
             id="path3314" />
          <path
             inkscape:connector-curvature="0"
             d="m 282.09375,609.13832 c 0.63281,0 1.15966,0.2002 1.58057,0.60058 0.42089,0.4004 0.63134,0.90235 0.63134,1.50586 0,0.60352 -0.2124,1.10303 -0.6372,1.49854 -0.42481,0.39551 -0.96046,0.59326 -1.60694,0.59326 -0.61719,0 -1.13135,-0.19775 -1.54248,-0.59326 -0.41113,-0.39551 -0.6167,-0.89111 -0.6167,-1.48682 0,-0.61132 0.20703,-1.11718 0.6211,-1.51758 0.41406,-0.40038 0.9375,-0.60058 1.57031,-0.60058 z m 0.0234,0.55664 c -0.46875,0 -0.85401,0.14649 -1.15576,0.43945 -0.30176,0.29297 -0.45264,0.667 -0.45264,1.12207 0,0.44141 0.15137,0.8086 0.4541,1.10157 0.30273,0.29296 0.68164,0.43945 1.13672,0.43945 0.45703,0 0.83837,-0.14941 1.14404,-0.44824 0.30566,-0.29883 0.45849,-0.6709 0.4585,-1.11621 -1e-5,-0.4336 -0.15284,-0.79834 -0.4585,-1.09424 -0.30567,-0.2959 -0.68115,-0.44385 -1.12646,-0.44385 z"
             style="font-variant:normal;font-stretch:normal;font-family:'Gill Sans MT';-inkscape-font-specification:'Gill Sans MT'"
             id="path3316" />
          <path
             inkscape:connector-curvature="0"
             d="m 288.28125,609.19691 h 0.55664 v 4.09278 h -0.50391 l -2.73632,-3.14942 v 3.14942 h -0.55079 v -4.09278 h 0.47461 l 2.75977,3.17578 z"
             style="font-variant:normal;font-stretch:normal;font-family:'Gill Sans MT';-inkscape-font-specification:'Gill Sans MT'"
             id="path3318" />
          <path
             inkscape:connector-curvature="0"
             d="m 289.72266,613.28383 v -4.08692 h 1.37988 c 0.55664,10e-6 0.99707,0.0835 1.32129,0.25049 0.32421,0.167 0.58203,0.4126 0.77344,0.73682 0.1914,0.32422 0.2871,0.67773 0.2871,1.06054 0,0.27344 -0.0527,0.53516 -0.1582,0.78516 -0.10547,0.25 -0.25586,0.46973 -0.45117,0.65918 -0.19922,0.19531 -0.43067,0.34277 -0.69434,0.44238 -0.1543,0.0606 -0.2959,0.10108 -0.4248,0.12158 -0.12891,0.0205 -0.375,0.0308 -0.73828,0.0308 z m 1.31836,-3.56543 h -0.73243 v 3.04394 h 0.75 c 0.29297,0 0.52051,-0.02 0.68262,-0.0601 0.16211,-0.04 0.29736,-0.0908 0.40576,-0.15234 0.1084,-0.0615 0.20752,-0.13721 0.29737,-0.22705 0.28905,-0.29297 0.43359,-0.66309 0.43359,-1.11035 0,-0.43945 -0.14844,-0.79785 -0.44531,-1.0752 -0.10938,-0.10351 -0.23487,-0.18847 -0.37647,-0.25488 -0.1416,-0.0664 -0.27588,-0.11035 -0.40283,-0.13184 -0.12696,-0.0215 -0.33106,-0.0322 -0.6123,-0.0322 z"
             style="font-variant:normal;font-stretch:normal;font-family:'Gill Sans MT';-inkscape-font-specification:'Gill Sans MT'"
             id="path3320" />
          <path
             inkscape:connector-curvature="0"
             d="m 295.53223,609.19105 h 3.41894 v 0.52149 h -1.42676 v 3.57715 h -0.58886 v -3.57715 h -1.40332 z"
             style="font-variant:normal;font-stretch:normal;font-family:'Gill Sans MT';-inkscape-font-specification:'Gill Sans MT'"
             id="path3322" />
          <path
             inkscape:connector-curvature="0"
             d="m 301.51172,609.13832 c 0.63281,0 1.15966,0.2002 1.58057,0.60058 0.42089,0.4004 0.63134,0.90235 0.63134,1.50586 0,0.60352 -0.2124,1.10303 -0.6372,1.49854 -0.42481,0.39551 -0.96046,0.59326 -1.60694,0.59326 -0.61719,0 -1.13135,-0.19775 -1.54248,-0.59326 -0.41113,-0.39551 -0.6167,-0.89111 -0.6167,-1.48682 0,-0.61132 0.20703,-1.11718 0.6211,-1.51758 0.41406,-0.40038 0.93749,-0.60058 1.57031,-0.60058 z m 0.0234,0.55664 c -0.46876,0 -0.85401,0.14649 -1.15577,0.43945 -0.30175,0.29297 -0.45263,0.667 -0.45263,1.12207 0,0.44141 0.15136,0.8086 0.4541,1.10157 0.30273,0.29296 0.68164,0.43945 1.13672,0.43945 0.45703,0 0.83837,-0.14941 1.14404,-0.44824 0.30566,-0.29883 0.45849,-0.6709 0.4585,-1.11621 -10e-6,-0.4336 -0.15284,-0.79834 -0.4585,-1.09424 -0.30567,-0.2959 -0.68115,-0.44385 -1.12646,-0.44385 z"
             style="font-variant:normal;font-stretch:normal;font-family:'Gill Sans MT';-inkscape-font-specification:'Gill Sans MT'"
             id="path3324" />
          <path
             inkscape:connector-curvature="0"
             d="m 307.41797,609.17348 h 0.41308 l 1.83106,4.11621 h -0.60059 l -0.54492,-1.21289 h -1.74023 l -0.51563,1.21289 h -0.60058 z m 0.8584,2.38183 -0.65918,-1.48242 -0.61231,1.48242 z"
             style="font-variant:normal;font-stretch:normal;font-family:'Gill Sans MT';-inkscape-font-specification:'Gill Sans MT'"
             id="path3326" />
          <path
             inkscape:connector-curvature="0"
             d="m 310.11914,609.19691 h 0.58594 v 3.55957 h 1.84277 v 0.53321 h -2.42871 z"
             style="font-variant:normal;font-stretch:normal;font-family:'Gill Sans MT';-inkscape-font-specification:'Gill Sans MT'"
             id="path3328" />
          <path
             inkscape:connector-curvature="0"
             d="m 313.06055,609.19691 h 0.58593 v 3.55957 h 1.84278 v 0.53321 h -2.42871 z"
             style="font-variant:normal;font-stretch:normal;font-family:'Gill Sans MT';-inkscape-font-specification:'Gill Sans MT'"
             id="path3330" />
          <path
             inkscape:connector-curvature="0"
             d="m 321.19336,612.34047 v 0.64453 c -0.42969,0.23437 -0.92578,0.35156 -1.48828,0.35156 -0.45704,0 -0.84473,-0.0918 -1.16309,-0.27539 -0.31836,-0.18359 -0.57031,-0.43652 -0.75586,-0.75879 -0.18554,-0.32226 -0.27832,-0.6709 -0.27832,-1.0459 0,-0.5957 0.2124,-1.09667 0.63721,-1.50293 0.4248,-0.40624 0.94873,-0.60937 1.57178,-0.60937 0.42968,0 0.90722,0.11231 1.43261,0.33691 v 0.62989 c -0.47852,-0.27344 -0.94629,-0.41016 -1.40332,-0.41016 -0.46875,0 -0.85791,0.14795 -1.16748,0.44385 -0.30957,0.2959 -0.46435,0.6665 -0.46435,1.11181 0,0.44922 0.15234,0.81836 0.45703,1.10742 0.30468,0.28907 0.69433,0.4336 1.16894,0.4336 0.4961,0 0.98047,-0.15234 1.45313,-0.45703 z"
             style="font-variant:normal;font-stretch:normal;font-family:'Gill Sans MT';-inkscape-font-specification:'Gill Sans MT'"
             id="path3332" />
          <path
             inkscape:connector-curvature="0"
             d="m 323.22656,609.17348 h 0.41309 l 1.83105,4.11621 h -0.60058 l -0.54492,-1.21289 h -1.74024 l -0.51562,1.21289 h -0.60059 z m 0.8584,2.38183 -0.65918,-1.48242 -0.6123,1.48242 z"
             style="font-variant:normal;font-stretch:normal;font-family:'Gill Sans MT';-inkscape-font-specification:'Gill Sans MT'"
             id="path3334" />
          <path
             inkscape:connector-curvature="0"
             d="m 325.92773,609.19691 h 0.58594 v 3.55957 h 1.84278 v 0.53321 h -2.42872 z"
             style="font-variant:normal;font-stretch:normal;font-family:'Gill Sans MT';-inkscape-font-specification:'Gill Sans MT'"
             id="path3336" />
          <path
             inkscape:connector-curvature="0"
             d="m 328.86914,609.19691 h 0.58594 v 3.55957 h 1.84277 v 0.53321 h -2.42871 z"
             style="font-variant:normal;font-stretch:normal;font-family:'Gill Sans MT';-inkscape-font-specification:'Gill Sans MT'"
             id="path3338" />
          <path
             inkscape:connector-curvature="0"
             d="m 332.82422,611.57289 -0.44531,-0.26953 c -0.2793,-0.16992 -0.47803,-0.3374 -0.5962,-0.50244 -0.11816,-0.16504 -0.17724,-0.35498 -0.17724,-0.56983 0,-0.32226 0.11181,-0.58398 0.33545,-0.78515 0.22363,-0.20117 0.51416,-0.30176 0.87158,-0.30176 0.3418,0 0.65527,0.0957 0.94043,0.28711 v 0.66504 c -0.29492,-0.2832 -0.61231,-0.4248 -0.95215,-0.42481 -0.19141,10e-6 -0.34863,0.0444 -0.47168,0.1333 -0.12305,0.0889 -0.18457,0.20264 -0.18457,0.34131 0,0.12305 0.0449,0.23829 0.13477,0.3457 0.0898,0.10743 0.23535,0.21973 0.43652,0.33692 l 0.44824,0.26367 c 0.5,0.29688 0.75,0.67578 0.75,1.13672 0,0.32812 -0.10986,0.59473 -0.32959,0.7998 -0.21973,0.20508 -0.50537,0.30762 -0.85693,0.30762 -0.4043,0 -0.77246,-0.12402 -1.10449,-0.37207 v -0.74414 c 0.3164,0.40039 0.68261,0.60059 1.09863,0.60059 0.18359,0 0.33642,-0.0513 0.4585,-0.15381 0.12206,-0.10254 0.1831,-0.23096 0.1831,-0.38526 0,-0.25 -0.17969,-0.48632 -0.53906,-0.70898 z"
             style="font-variant:normal;font-stretch:normal;font-family:'Gill Sans MT';-inkscape-font-specification:'Gill Sans MT'"
             id="path3340" />
          <path
             inkscape:connector-curvature="0"
             d="m 264.0415,630.52718 v -7.51416 h 2.3794 c 0.71614,10e-6 1.28727,0.19337 1.71338,0.58008 0.4261,0.38672 0.63915,0.90593 0.63916,1.55762 -10e-6,0.43685 -0.10922,0.82357 -0.32764,1.16015 -0.21843,0.3366 -0.51742,0.58098 -0.89697,0.73316 -0.37956,0.15218 -0.92383,0.22827 -1.63281,0.22827 h -0.79493 v 3.25488 z m 2.19141,-6.5581 h -1.11182 v 2.34716 h 1.17627 c 0.43685,10e-6 0.77344,-0.10294 1.00977,-0.30883 0.23632,-0.20589 0.35449,-0.50041 0.35449,-0.88355 0,-0.76985 -0.47624,-1.15478 -1.42871,-1.15478 z"
             style="font-variant:normal;font-stretch:normal;font-size:11px;font-family:'Gill Sans MT';-inkscape-font-specification:'Gill Sans MT'"
             id="path3342" />
          <path
             inkscape:connector-curvature="0"
             d="m 274.92871,623.02376 h 1.07959 v 4.25928 c -1e-5,0.5765 -0.0421,1.01156 -0.12622,1.30518 -0.0841,0.29362 -0.188,0.538 -0.31152,0.73315 -0.12355,0.19515 -0.27483,0.36971 -0.45386,0.52368 -0.59441,0.51205 -1.37142,0.76807 -2.33106,0.76807 -0.97754,0 -1.76172,-0.25423 -2.35253,-0.7627 -0.17904,-0.15755 -0.33033,-0.3339 -0.45386,-0.52905 -0.12354,-0.19515 -0.22559,-0.43416 -0.30615,-0.71704 -0.0806,-0.28288 -0.12085,-0.72689 -0.12085,-1.33203 v -4.24854 h 1.07959 v 4.25928 c -1e-5,0.70541 0.0806,1.19597 0.2417,1.47168 0.16113,0.27572 0.40641,0.49683 0.73583,0.66333 0.32943,0.16651 0.71794,0.24976 1.16553,0.24976 0.63737,0 1.15657,-0.16651 1.55762,-0.49952 0.21126,-0.17903 0.36344,-0.39029 0.45654,-0.63378 0.0931,-0.24349 0.13964,-0.66065 0.13965,-1.25147 z"
             style="font-variant:normal;font-stretch:normal;font-size:11px;font-family:'Gill Sans MT';-inkscape-font-specification:'Gill Sans MT'"
             id="path3344" />
          <path
             inkscape:connector-curvature="0"
             d="m 277.50684,623.02376 h 1.07421 v 6.52588 h 3.37842 v 0.97754 h -4.45263 z"
             style="font-variant:normal;font-stretch:normal;font-size:11px;font-family:'Gill Sans MT';-inkscape-font-specification:'Gill Sans MT'"
             id="path3346" />
          <path
             inkscape:connector-curvature="0"
             d="m 282.89941,623.02376 h 1.07422 v 6.52588 h 3.37842 v 0.97754 h -4.45264 z"
             style="font-variant:normal;font-stretch:normal;font-size:11px;font-family:'Gill Sans MT';-inkscape-font-specification:'Gill Sans MT'"
             id="path3348" />
          <path
             inkscape:connector-curvature="0"
             d="m 290.70361,623.01302 h 6.26807 v 0.95606 h -2.61572 v 6.5581 h -1.07959 v -6.5581 h -2.57276 z"
             style="font-variant:normal;font-stretch:normal;font-size:11px;font-family:'Gill Sans MT';-inkscape-font-specification:'Gill Sans MT'"
             id="path3350" />
          <path
             inkscape:connector-curvature="0"
             d="m 301.66602,622.91634 c 1.16015,10e-6 2.12605,0.36703 2.8977,1.10108 0.77164,0.73405 1.15746,1.6543 1.15747,2.76074 -10e-6,1.10645 -0.38941,2.02222 -1.16821,2.74731 -0.77882,0.7251 -1.76083,1.08765 -2.94605,1.08765 -1.13151,0 -2.07414,-0.36255 -2.82788,-1.08765 -0.75374,-0.72509 -1.13061,-1.6337 -1.13061,-2.72583 0,-1.12076 0.37955,-2.04817 1.13867,-2.78222 0.75911,-0.73405 1.71875,-1.10107 2.87891,-1.10108 z m 0.043,1.02051 c -0.85937,10e-6 -1.56567,0.26856 -2.11889,0.80566 -0.55323,0.53712 -0.82984,1.22283 -0.82984,2.05713 0,0.80925 0.27751,1.48243 0.83252,2.01953 0.55501,0.53711 1.24967,0.80567 2.08399,0.80567 0.83788,0 1.53702,-0.27393 2.09741,-0.82178 0.56038,-0.54785 0.84057,-1.22998 0.84058,-2.04639 -1e-5,-0.79491 -0.2802,-1.46361 -0.84058,-2.0061 -0.56039,-0.54247 -1.24878,-0.81371 -2.06519,-0.81372 z"
             style="font-variant:normal;font-stretch:normal;font-size:11px;font-family:'Gill Sans MT';-inkscape-font-specification:'Gill Sans MT'"
             id="path3352" />
          <path
             inkscape:connector-curvature="0"
             d="m 313.7832,622.91634 c 1.16015,10e-6 2.12605,0.36703 2.89771,1.10108 0.77164,0.73405 1.15746,1.6543 1.15747,2.76074 -10e-6,1.10645 -0.38941,2.02222 -1.16821,2.74731 -0.77882,0.7251 -1.76083,1.08765 -2.94605,1.08765 -1.13151,0 -2.07414,-0.36255 -2.82788,-1.08765 -0.75374,-0.72509 -1.13062,-1.6337 -1.13062,-2.72583 0,-1.12076 0.37956,-2.04817 1.13868,-2.78222 0.75911,-0.73405 1.71874,-1.10107 2.8789,-1.10108 z m 0.043,1.02051 c -0.85938,10e-6 -1.56567,0.26856 -2.11889,0.80566 -0.55323,0.53712 -0.82984,1.22283 -0.82984,2.05713 0,0.80925 0.27751,1.48243 0.83252,2.01953 0.55501,0.53711 1.24967,0.80567 2.08399,0.80567 0.83788,0 1.53702,-0.27393 2.09741,-0.82178 0.56037,-0.54785 0.84057,-1.22998 0.84057,-2.04639 0,-0.79491 -0.2802,-1.46361 -0.84057,-2.0061 -0.56039,-0.54247 -1.24879,-0.81371 -2.06519,-0.81372 z"
             style="font-variant:normal;font-stretch:normal;font-size:11px;font-family:'Gill Sans MT';-inkscape-font-specification:'Gill Sans MT'"
             id="path3354" />
          <path
             inkscape:connector-curvature="0"
             d="m 319.10596,630.52718 v -7.51416 h 2.37939 c 0.71614,10e-6 1.28727,0.19337 1.71338,0.58008 0.4261,0.38672 0.63916,0.90593 0.63916,1.55762 0,0.43685 -0.10922,0.82357 -0.32764,1.16015 -0.21843,0.3366 -0.51742,0.58098 -0.89697,0.73316 -0.37956,0.15218 -0.92383,0.22827 -1.63281,0.22827 h -0.79492 v 3.25488 z m 2.1914,-6.5581 h -1.11181 v 2.34716 h 1.17627 c 0.43684,10e-6 0.77343,-0.10294 1.00976,-0.30883 0.23633,-0.20589 0.35449,-0.50041 0.35449,-0.88355 0,-0.76985 -0.47624,-1.15478 -1.42871,-1.15478 z"
             style="font-variant:normal;font-stretch:normal;font-size:11px;font-family:'Gill Sans MT';-inkscape-font-specification:'Gill Sans MT'"
             id="path3356" />
          <path
             inkscape:connector-curvature="0"
             d="m 324.77246,623.02376 h 4.25391 v 0.95606 h -3.17969 v 2.28808 h 3.07227 v 0.96143 h -3.07227 v 2.33105 h 3.28174 v 0.95606 h -4.35596 z"
             style="font-variant:normal;font-stretch:normal;font-size:11px;font-family:'Gill Sans MT';-inkscape-font-specification:'Gill Sans MT'"
             id="path3358" />
          <path
             inkscape:connector-curvature="0"
             d="m 336.23437,623.02376 h 1.02051 v 7.50342 h -0.92383 l -5.0166,-5.77392 v 5.77392 h -1.00976 v -7.50342 h 0.87011 l 5.05957,5.82227 z"
             style="font-variant:normal;font-stretch:normal;font-size:11px;font-family:'Gill Sans MT';-inkscape-font-specification:'Gill Sans MT'"
             id="path3360" />
        </g>
      </g>
    </g>
  </g>
</svg>
